<svg preserveAspectRatio="none" width="100%" height="100%" overflow="visible" style="display: block;" viewBox="0 0 28.6312 28.6312" fill="none" xmlns="http://www.w3.org/2000/svg">
<g id="streamline:app-store-solid" clip-path="url(#clip0_0_47)">
<path id="Vector" fill-rule="evenodd" clip-rule="evenodd" d="M18.1052 2.6547C17.6107 2.36825 17.0228 2.28984 16.4706 2.43672C15.9183 2.58359 15.447 2.94373 15.1602 3.43796L14.6122 4.3787L14.0661 3.43796C13.7792 2.94303 13.3074 2.58235 12.7546 2.43527C12.2017 2.28819 11.6131 2.36675 11.1181 2.65367C10.6232 2.9406 10.2625 3.41238 10.1154 3.96524C9.96836 4.51809 10.0469 5.10673 10.3338 5.60166L12.1192 8.67951L6.43796 18.4755H2.67501C2.10333 18.4755 1.55506 18.7026 1.15082 19.1068C0.746586 19.511 0.519487 20.0593 0.519487 20.631C0.519487 21.2027 0.746586 21.7509 1.15082 22.1552C1.55506 22.5594 2.10333 22.7865 2.67501 22.7865H17.645L15.15 18.4755H11.4239L14.6122 12.9762L18.8884 5.60371C19.0306 5.3588 19.1231 5.08828 19.1607 4.80761C19.1982 4.52694 19.1801 4.24161 19.1074 3.96794C19.0347 3.69426 18.9087 3.4376 18.7367 3.21262C18.5648 2.98764 18.3502 2.79875 18.1052 2.65674M3.55439 27.9094C4.06187 28.2012 4.66441 28.2796 5.22964 28.1273C5.79487 27.9751 6.27654 27.6047 6.56885 27.0975L7.78363 24.9911H2.69137C2.43361 25.4954 2.37944 26.0795 2.54006 26.6226C2.70067 27.1658 3.0638 27.6264 3.55439 27.9094ZM22.678 27.0975L15.8515 15.2401L18.3935 10.8678L22.8089 18.4755H26.2221C26.7943 18.4755 27.3431 18.7028 27.7477 19.1074C28.1524 19.512 28.3797 20.0608 28.3797 20.633C28.3797 21.2053 28.1524 21.754 27.7477 22.1587C27.3431 22.5633 26.7943 22.7906 26.2221 22.7906H25.2916L26.5043 24.895C26.6642 25.1466 26.7714 25.428 26.8196 25.7222C26.8678 26.0164 26.8559 26.3173 26.7847 26.6068C26.7135 26.8963 26.5845 27.1683 26.4053 27.4066C26.2262 27.6449 26.0006 27.8444 25.7423 27.9932C25.484 28.142 25.1982 28.2369 24.9022 28.2723C24.6062 28.3077 24.3061 28.2828 24.0199 28.1991C23.7338 28.1154 23.4676 27.9747 23.2373 27.7854C23.007 27.5961 22.8175 27.3621 22.68 27.0975" fill="var(--fill-0, #371E1E)"/>
</g>
<defs>
<clipPath id="clip0_0_47">
<rect width="28.6312" height="28.6312" fill="white"/>
</clipPath>
</defs>
</svg>
