<svg preserveAspectRatio="none" width="100%" height="100%" overflow="visible" style="display: block;" viewBox="0 0 35.79 35.79" fill="none" xmlns="http://www.w3.org/2000/svg">
<g id="material-symbols:design-services-outline-rounded">
<path id="Vector" d="M13.123 16.3292L16.3292 13.0857L14.2414 10.9607L13.6449 11.5572C13.3715 11.8306 13.03 11.9737 12.6204 11.9867C12.2109 11.9996 11.8564 11.8564 11.5572 11.5572C11.2579 11.2579 11.1088 10.904 11.1098 10.4954C11.1108 10.0868 11.2599 9.73239 11.5572 9.43216L12.1164 8.87294L10.4388 7.19528L7.19528 10.4388L13.123 16.3292ZM25.3513 28.5947L28.5947 25.3513L26.9171 23.6736L26.3206 24.2328C26.0223 24.5311 25.6744 24.6802 25.2767 24.6802C24.879 24.6802 24.5311 24.5311 24.2328 24.2328C23.9346 23.9346 23.7854 23.5866 23.7854 23.1889C23.7854 22.7913 23.9346 22.4433 24.2328 22.1451L24.792 21.5486L22.667 19.4608L19.4608 22.667L25.3513 28.5947ZM5.965 31.3163C5.54248 31.3163 5.18856 31.1731 4.90323 30.8868C4.6179 30.6005 4.47474 30.2465 4.47375 29.825V25.6122C4.47375 25.4134 4.51103 25.221 4.58559 25.0351C4.66016 24.8492 4.772 24.6812 4.92112 24.5311L10.998 18.4542L4.54831 12.0046C4.12579 11.582 3.91453 11.0601 3.91453 10.4388C3.91453 9.8174 4.12579 9.29546 4.54831 8.87294L8.87294 4.54831C9.29546 4.12579 9.8174 3.92099 10.4388 3.93392C11.0601 3.94684 11.582 4.16407 12.0046 4.58559L18.4915 11.0353L24.121 5.3685C24.4192 5.07025 24.7548 4.84656 25.1276 4.69744C25.5004 4.54831 25.8856 4.47375 26.2833 4.47375C26.6809 4.47375 27.0662 4.54831 27.439 4.69744C27.8118 4.84656 28.1473 5.07025 28.4456 5.3685L30.4215 7.38169C30.7198 7.67994 30.9434 8.01547 31.0926 8.38828C31.2417 8.76109 31.3163 9.14633 31.3163 9.544C31.3163 9.94167 31.2417 10.3209 31.0926 10.6818C30.9434 11.0427 30.7198 11.3718 30.4215 11.669L24.792 17.3358L31.2417 23.7854C31.6642 24.208 31.8755 24.7299 31.8755 25.3513C31.8755 25.9726 31.6642 26.4945 31.2417 26.9171L26.9171 31.2417C26.4945 31.6642 25.9726 31.8755 25.3513 31.8755C24.7299 31.8755 24.208 31.6642 23.7854 31.2417L17.3358 24.792L11.2589 30.8689C11.1098 31.018 10.9423 31.1298 10.7564 31.2044C10.5705 31.279 10.3776 31.3163 10.1778 31.3163H5.965ZM7.45625 28.3338H9.544L24.1583 13.7568L22.0332 11.6318L7.45625 26.246V28.3338ZM23.1144 12.7129L22.0332 11.6318L24.1583 13.7568L23.1144 12.7129Z" fill="var(--fill-0, #371E1E)"/>
</g>
</svg>
