<svg preserveAspectRatio="none" width="100%" height="100%" overflow="visible" style="display: block;" viewBox="0 0 35.789 35.789" fill="none" xmlns="http://www.w3.org/2000/svg">
<g id="material-symbols:food-bank-outline-rounded">
<path id="Vector" d="M6.71043 34.5774C5.68523 34.5774 4.8079 34.2126 4.07845 33.4832C3.34901 32.7537 2.98366 31.8758 2.98242 30.8493V14.0733C2.98242 13.483 3.11476 12.9238 3.37945 12.3957C3.64414 11.8675 4.00887 11.4326 4.47362 11.0909L15.6577 2.70282C16.3101 2.20575 17.0557 1.95721 17.8945 1.95721C18.7333 1.95721 19.4789 2.20575 20.1313 2.70282L31.3153 11.0909C31.7813 11.4326 32.1467 11.8675 32.4114 12.3957C32.6761 12.9238 32.8078 13.483 32.8066 14.0733V30.8493C32.8066 31.8745 32.4412 32.7525 31.7105 33.4832C30.9798 34.2139 30.1025 34.5786 29.0785 34.5774H6.71043ZM6.71043 30.8493H29.0785V14.0733L17.8945 5.68523L6.71043 14.0733V30.8493ZM15.0985 28.9853C15.347 28.9853 15.5645 28.8921 15.7509 28.7057C15.9373 28.5193 16.0305 28.3019 16.0305 28.0533V21.5293C16.8071 21.5293 17.4676 21.2578 18.0119 20.7147C18.5562 20.1717 18.8277 19.5112 18.8265 18.7333V14.0733C18.8265 13.8247 18.7333 13.6073 18.5469 13.4209C18.3605 13.2345 18.143 13.1413 17.8945 13.1413C17.6459 13.1413 17.4285 13.2345 17.2421 13.4209C17.0557 13.6073 16.9625 13.8247 16.9625 14.0733V18.7333H16.0305V14.0733C16.0305 13.8247 15.9373 13.6073 15.7509 13.4209C15.5645 13.2345 15.347 13.1413 15.0985 13.1413C14.8499 13.1413 14.6325 13.2345 14.4461 13.4209C14.2597 13.6073 14.1665 13.8247 14.1665 14.0733V18.7333H13.2345V14.0733C13.2345 13.8247 13.1413 13.6073 12.9549 13.4209C12.7685 13.2345 12.551 13.1413 12.3025 13.1413C12.0539 13.1413 11.8365 13.2345 11.6501 13.4209C11.4637 13.6073 11.3705 13.8247 11.3705 14.0733V18.7333C11.3705 19.51 11.6426 20.1704 12.1869 20.7147C12.7312 21.259 13.391 21.5305 14.1665 21.5293V28.0533C14.1665 28.3019 14.2597 28.5193 14.4461 28.7057C14.6325 28.8921 14.8499 28.9853 15.0985 28.9853ZM23.2069 28.7057C23.3933 28.5193 23.4865 28.3019 23.4865 28.0533V14.3529C23.4865 14.0111 23.3703 13.7241 23.1379 13.4917C22.9056 13.2593 22.6179 13.1425 22.2749 13.1413C21.4361 13.1413 20.8073 13.5296 20.3885 14.3063C19.9697 15.0829 19.7597 15.9373 19.7585 16.8693V20.5973C19.7585 21.0944 19.984 21.4442 20.4351 21.6467C20.8862 21.8493 21.282 22.1208 21.6225 22.4613V28.0533C21.6225 28.3019 21.7157 28.5193 21.9021 28.7057C22.0885 28.8921 22.306 28.9853 22.5545 28.9853C22.803 28.9853 23.0205 28.8921 23.2069 28.7057Z" fill="var(--fill-0, #371E1E)"/>
</g>
</svg>
