<svg preserveAspectRatio="none" width="100%" height="100%" overflow="visible" style="display: block;" viewBox="0 0 25.6592 26.8417" fill="none" xmlns="http://www.w3.org/2000/svg">
<g id="Group">
<path id="Vector" fill-rule="evenodd" clip-rule="evenodd" d="M7.45604 1.49121C7.45604 1.09572 7.29893 0.716424 7.01927 0.436768C6.73961 0.157112 6.36032 3.69753e-06 5.96483 3.69753e-06H1.49121C1.09571 3.69753e-06 0.71642 0.157112 0.436764 0.436768C0.157109 0.716424 0 1.09572 0 1.49121V25.3505C0 25.746 0.157109 26.1253 0.436764 26.405C0.71642 26.6846 1.09571 26.8417 1.49121 26.8417H5.96483C6.36032 26.8417 6.73961 26.6846 7.01927 26.405C7.29893 26.1253 7.45604 25.746 7.45604 25.3505V1.49121ZM2.98241 2.98242V23.8593H4.47362V2.98242H2.98241Z" fill="var(--fill-0, #371E1E)"/>
<path id="Vector_2" d="M8.94724 11.4152V25.3505C8.94724 25.746 9.10435 26.1253 9.38401 26.405C9.66366 26.6846 10.043 26.8417 10.4384 26.8417H14.9121C15.3076 26.8417 15.6869 26.6846 15.9665 26.405C16.2462 26.1253 16.4033 25.746 16.4033 25.3505V15.2834H16.2169C15.2664 15.2838 14.3222 15.1302 13.4209 14.8286V23.8593H11.9297V14.1665C10.7347 13.4943 9.71343 12.5521 8.94724 11.4152Z" fill="var(--fill-0, #371E1E)"/>
<path id="Vector_3" fill-rule="evenodd" clip-rule="evenodd" d="M16.2169 13.0481C16.2795 13.0481 16.3416 13.0471 16.4033 13.0451C17.5542 13.0143 18.6763 12.6777 19.6541 12.0698L23.5506 15.9664L25.6592 13.8578L21.7627 9.96127C22.5239 8.73325 22.8559 7.28728 22.7067 5.8502C22.5575 4.41311 21.9354 3.06622 20.9381 2.0208C19.9408 0.975383 18.6247 0.290588 17.1963 0.0738407C15.7678 -0.142907 14.3078 0.120655 13.0453 0.823182C11.7828 1.52571 10.7892 2.62745 10.2204 3.95559C9.65157 5.28372 9.53973 6.7631 9.90239 8.16165C10.2651 9.56021 11.0817 10.7988 12.2243 11.6832C13.3668 12.5675 14.7706 13.0476 16.2154 13.0481M16.2154 10.0657C15.7315 10.0659 15.2527 9.96674 14.8087 9.77436C14.3647 9.58197 13.9649 9.30046 13.6341 8.94725C13.0768 8.35323 12.7413 7.58526 12.6841 6.77274C12.6269 5.96022 12.8515 5.15282 13.3201 4.48657C13.7887 3.82033 14.4726 3.33597 15.2566 3.11511C16.0406 2.89424 16.8768 2.95038 17.6243 3.27405C18.3717 3.59771 18.9848 4.16914 19.3601 4.89203C19.7355 5.61493 19.8502 6.44511 19.6849 7.24269C19.5196 8.04028 19.0845 8.75651 18.4528 9.27072C17.821 9.78493 17.0314 10.0657 16.2169 10.0657M19.3857 17.8945C18.9902 17.8945 18.6109 18.0516 18.3312 18.3313C18.0516 18.6109 17.8945 18.9902 17.8945 19.3857V25.3505C17.8945 25.746 18.0516 26.1253 18.3312 26.405C18.6109 26.6846 18.9902 26.8417 19.3857 26.8417H23.8593C24.2548 26.8417 24.6341 26.6846 24.9138 26.405C25.1934 26.1253 25.3505 25.746 25.3505 25.3505V19.3857C25.3505 18.9902 25.1934 18.6109 24.9138 18.3313C24.6341 18.0516 24.2548 17.8945 23.8593 17.8945H19.3857ZM20.8769 23.8593V20.8769H22.3681V23.8593H20.8769Z" fill="var(--fill-0, #371E1E)"/>
</g>
</svg>
