<svg preserveAspectRatio="none" width="100%" height="100%" overflow="visible" style="display: block;" viewBox="0 0 32.2101 32.2101" fill="none" xmlns="http://www.w3.org/2000/svg">
<g id="Group">
<path id="Vector" d="M8.649 13.1226V16.105C8.649 17.0997 9.24548 19.0874 11.6314 19.0874C14.0173 19.0874 14.6138 17.0997 14.6138 16.105V13.1226M19.0874 13.1226L21.3243 16.105M21.3243 16.105L23.5611 19.0874M21.3243 16.105L23.5611 13.1226M21.3243 16.105L19.0874 19.0874" stroke="var(--stroke-0, #371E1E)" stroke-width="2.38593" stroke-linecap="round" stroke-linejoin="round"/>
<path id="Vector_2" d="M16.105 31.0171C24.3407 31.0171 31.0171 24.3407 31.0171 16.105C31.0171 7.86933 24.3407 1.19297 16.105 1.19297C7.86933 1.19297 1.19297 7.86933 1.19297 16.105C1.19297 24.3407 7.86933 31.0171 16.105 31.0171Z" stroke="var(--stroke-0, #371E1E)" stroke-width="2.38593" stroke-linecap="round" stroke-linejoin="round"/>
</g>
</svg>
