<svg preserveAspectRatio="none" width="100%" height="100%" overflow="visible" style="display: block;" viewBox="0 0 140.504 117.628" fill="none" xmlns="http://www.w3.org/2000/svg">
<g id="Group">
<path id="Vector" d="M54.6476 105.62H122.773V105.13H55.1378V81.3597H117.047L120.054 75.0942L119.612 74.8819L116.74 80.8691H54.6476V105.62Z" fill="var(--fill-0, #2F2E41)"/>
<path id="Vector_2" d="M113.706 117.628C116.548 117.628 118.852 115.324 118.852 112.482C118.852 109.639 116.548 107.335 113.706 107.335C110.864 107.335 108.56 109.639 108.56 112.482C108.56 115.324 110.864 117.628 113.706 117.628Z" fill="var(--fill-0, #3F3D56)"/>
<path id="Vector_3" d="M62.979 117.628C65.8212 117.628 68.1251 115.324 68.1251 112.482C68.1251 109.639 65.8212 107.335 62.979 107.335C60.1369 107.335 57.8329 109.639 57.8329 112.482C57.8329 115.324 60.1369 117.628 62.979 117.628Z" fill="var(--fill-0, #3F3D56)"/>
<path id="Vector_4" d="M3.18559 6.37118C4.94494 6.37118 6.37118 4.94494 6.37118 3.18559C6.37118 1.42624 4.94494 0 3.18559 0C1.42624 0 0 1.42624 0 3.18559C0 4.94494 1.42624 6.37118 3.18559 6.37118Z" fill="var(--fill-0, #3F3D56)"/>
<path id="Vector_5" d="M47.3612 73.2728H123.935L140.504 19.1149H30.2978L30.3983 19.4333L47.3612 73.2728ZM123.573 72.7832H47.7188L30.9663 19.6051H139.841L123.573 72.7832Z" fill="var(--fill-0, #2F2E41)"/>
<path id="Vector_6" d="M53.3393 70.4543H120.597L135.149 22.4227H38.352L38.4402 22.7058L53.3393 70.4543Z" fill="var(--fill-0, #F2F2F2)"/>
<path id="Vector_7" d="M28.9248 14.2755L29.3966 14.1495L26.1647 1.96052H7.3512V2.45065H25.7873L28.9248 14.2755Z" fill="var(--fill-0, #2F2E41)"/>
<path id="Vector_8" d="M135.151 35.5335H35.8056V36.0236H135.151V35.5335Z" fill="var(--fill-0, #2F2E41)"/>
<path id="Vector_9" d="M129.626 53.5904H41.4944V54.0805H129.626V53.5904Z" fill="var(--fill-0, #2F2E41)"/>
<path id="Vector_10" d="M85.6473 19.3598H85.1572V73.0275H85.6473V19.3598Z" fill="var(--fill-0, #2F2E41)"/>
<path id="Vector_11" d="M62.7241 19.3764L66.2425 73.0431L66.7316 73.011L63.2132 19.3443L62.7241 19.3764Z" fill="var(--fill-0, #2F2E41)"/>
<path id="Vector_12" d="M104.083 73.0107L104.572 73.0426L108.068 19.3687L107.579 19.3369L104.083 73.0107Z" fill="var(--fill-0, #2F2E41)"/>
</g>
</svg>
