<svg preserveAspectRatio="none" width="100%" height="100%" overflow="visible" style="display: block;" viewBox="0 0 82.965 34.9694" fill="none" xmlns="http://www.w3.org/2000/svg">
<g id="Group">
<g id="Group_2">
<path id="Vector" d="M12.5016 10.0988C13.3158 9.02109 14.3387 8.11833 15.5093 7.44441C15.2107 8.76882 14.6478 10.0193 13.8545 11.1211C12.5752 12.8636 11.2293 14.0623 10.8543 13.776C10.4793 13.4896 11.2071 11.8419 12.5016 10.0988Z" fill="var(--fill-0, #090814)"/>
<path id="Vector_2" d="M10.7127 8.63552H11.4481C11.5417 8.63552 11.6314 8.67269 11.6976 8.73887C11.7638 8.80504 11.8009 8.8948 11.8009 8.98838V17.3201H10.4061V8.98838C10.4054 8.90192 10.4365 8.81822 10.4934 8.75318C10.5504 8.68813 10.6292 8.64626 10.715 8.63552H10.7127Z" fill="var(--fill-0, #090814)"/>
<path id="Vector_3" d="M23.5321 23.2035C23.5321 26.324 22.2925 29.3167 20.0859 31.5232C17.8794 33.7297 14.8867 34.9694 11.7662 34.9694C8.64568 34.9694 5.65298 33.7297 3.44645 31.5232C1.23992 29.3167 0.000296548 26.324 0.000296548 23.2035C0.000296548 17.8135 3.62554 14.6218 8.57493 13.6877C9.62766 13.4935 10.6962 13.3975 11.7667 13.4009C12.5041 13.4 13.2409 13.4443 13.9729 13.5335C19.4143 14.21 23.5321 17.4602 23.5321 23.2035Z" fill="var(--fill-0, #FC4A4A)"/>
<path id="Vector_4" opacity="0.1" d="M13.7276 34.6896C10.6071 34.6896 7.61442 33.45 5.40789 31.2434C3.20135 29.0369 1.96176 26.0442 1.96176 22.9237C1.96176 17.629 5.45255 14.4595 10.2642 13.4669C9.69676 13.5101 9.13207 13.5838 8.57257 13.6877C3.62554 14.6213 0.000296548 17.813 0.000296548 23.203C0.000296548 26.3235 1.23992 29.3162 3.44645 31.5227C5.65298 33.7292 8.64568 34.9689 11.7662 34.9689C12.6554 34.9706 13.5419 34.8694 14.4079 34.6674C14.1781 34.6821 13.9725 34.6896 13.7276 34.6896Z" fill="var(--fill-0, black)"/>
</g>
<g id="Group_3">
<path id="Vector_5" d="M81.7828 5.63954C82.4357 5.63954 82.965 5.11027 82.965 4.45738C82.965 3.8045 82.4357 3.27523 81.7828 3.27523C81.1299 3.27523 80.6006 3.8045 80.6006 4.45738C80.6006 5.11027 81.1299 5.63954 81.7828 5.63954Z" fill="var(--fill-0, #6C63FF)"/>
<g id="Group_4">
<path id="Vector_6" d="M81.6566 4.4574L81.7981 4.59892L74.7312 11.6612L72.514 9.44405L68.6223 13.3363L63.8446 8.55815L55.7167 16.686L52.0216 12.9896L43.9432 21.0708L39.4113 16.5384L31.1089 24.8432L30.9674 24.7017L39.4113 16.2577L43.9432 20.792L52.0216 12.7131L55.7162 16.4077L63.8441 8.27983L68.6223 13.058L72.514 9.1662L74.7312 11.3833L81.6566 4.4574Z" fill="var(--fill-0, #8E743D)"/>
<path id="Vector_7" d="M63.4992 9.7483C64.1521 9.7483 64.6813 9.21903 64.6813 8.56614C64.6813 7.91326 64.1521 7.38399 63.4992 7.38399C62.8463 7.38399 62.317 7.91326 62.317 8.56614C62.317 9.21903 62.8463 9.7483 63.4992 9.7483Z" fill="var(--fill-0, #8E743D)"/>
<path id="Vector_8" d="M39.4588 17.5319C40.1117 17.5319 40.6409 17.0026 40.6409 16.3497C40.6409 15.6968 40.1117 15.1675 39.4588 15.1675C38.8059 15.1675 38.2766 15.6968 38.2766 16.3497C38.2766 17.0026 38.8059 17.5319 39.4588 17.5319Z" fill="var(--fill-0, #8E743D)"/>
</g>
</g>
<path id="Vector_9" d="M33.6175 10.2497V9.25392C32.9197 9.24213 32.2473 8.98986 31.714 8.53972C31.4743 8.31417 31.284 8.04125 31.1553 7.73827C31.0266 7.43529 30.9622 7.10886 30.9663 6.7797H32.3178C32.3219 6.94443 32.36 7.10654 32.4297 7.25584C32.4995 7.40513 32.5993 7.53838 32.7231 7.64721C32.9783 7.85754 33.2903 7.98725 33.6194 8.01988V5.63811L33.208 5.52443C32.6511 5.39632 32.1364 5.12752 31.7131 4.74371C31.5336 4.5643 31.3932 4.34957 31.301 4.11311C31.2087 3.87666 31.1666 3.62363 31.1772 3.37004C31.1689 2.95929 31.278 2.55471 31.4919 2.20392C31.7062 1.86266 32.005 1.58253 32.3594 1.39066C32.7477 1.17939 33.1762 1.0524 33.617 1.01799V0H34.2302V1.01327C34.683 1.0336 35.1255 1.15514 35.5251 1.36896C35.8778 1.55966 36.1754 1.83795 36.3893 2.17703C36.6006 2.51726 36.7148 2.90875 36.7196 3.30918H35.3931C35.3733 3.0297 35.2462 2.76871 35.0383 2.58083C34.811 2.38799 34.5299 2.2696 34.2331 2.24166V4.48851L34.577 4.57955C34.9518 4.67606 35.3141 4.81618 35.6563 4.99703C35.9911 5.17075 36.2798 5.42171 36.4983 5.72916C36.726 6.07149 36.8397 6.47695 36.8233 6.88773C36.8322 7.19375 36.7762 7.49819 36.6591 7.78104C36.5419 8.0639 36.3662 8.31875 36.1436 8.52887C35.6137 8.99046 34.9358 9.24671 34.2331 9.25109V10.2479L33.6175 10.2497ZM34.2307 8.01422C34.558 7.98442 34.8676 7.85239 35.1157 7.63683C35.2234 7.54203 35.3091 7.42498 35.3671 7.29377C35.4251 7.16256 35.4539 7.02031 35.4516 6.87687C35.4581 6.74506 35.4309 6.61377 35.3725 6.4954C35.3141 6.37703 35.2266 6.27551 35.118 6.20041C34.8463 6.02186 34.5468 5.88985 34.2317 5.80982L34.2307 8.01422ZM33.6175 4.32246V2.24685C33.3267 2.2779 33.054 2.40275 32.8405 2.60253C32.7501 2.69066 32.6787 2.79634 32.6307 2.91307C32.5827 3.02981 32.5591 3.15514 32.5613 3.28135C32.5544 3.41231 32.5806 3.54289 32.6374 3.66108C32.6942 3.77928 32.7798 3.88132 32.8863 3.95781C33.1095 4.11723 33.3566 4.24015 33.6184 4.32199L33.6175 4.32246Z" fill="var(--fill-0, #8E743D)"/>
</g>
</svg>
