<svg preserveAspectRatio="none" width="100%" height="100%" overflow="visible" style="display: block;" viewBox="0 0 74.644 39.19" fill="none" xmlns="http://www.w3.org/2000/svg">
<g id="Group">
<path id="Vector" d="M9.87718 4.92116e-05H5.06553C4.89638 4.92116e-05 4.73416 0.0672385 4.61456 0.186845C4.49495 0.306452 4.42776 0.468674 4.42776 0.637823V2.74929C4.42776 2.91844 4.49495 3.08066 4.61456 3.20027C4.73416 3.31988 4.89638 3.38707 5.06553 3.38707H5.86275V6.55049H9.07995V3.38707H9.87718C10.0463 3.38707 10.2085 3.31988 10.3281 3.20027C10.4478 3.08066 10.515 2.91844 10.515 2.74929V0.637823C10.515 0.468674 10.4478 0.306452 10.3281 0.186845C10.2085 0.0672385 10.0463 4.92116e-05 9.87718 4.92116e-05Z" fill="var(--fill-0, #8E743D)"/>
<path id="Vector_2" d="M14.6965 19.3235C11.7504 15.0126 10.2443 9.87995 10.3939 4.66071C10.3961 4.54056 10.3569 4.42331 10.2827 4.32877C10.2085 4.23423 10.104 4.16819 9.98676 4.14181V3.22948H4.90623V4.12907H4.83641C4.69841 4.12969 4.5663 4.18502 4.46903 4.28291C4.37175 4.3808 4.31727 4.51327 4.31752 4.65128C4.31752 4.66386 4.31752 4.67643 4.31752 4.68901C4.78588 10.0151 3.34821 15.3344 0.260642 19.6994C0.0820731 19.954 -0.00912881 20.2595 0.000721767 20.5703L0.556409 37.754C0.56966 38.1373 0.730531 38.5008 1.00541 38.7684C1.28028 39.036 1.64792 39.187 2.03152 39.1899H13.5228C13.9109 39.1867 14.2824 39.0319 14.558 38.7588C14.8336 38.4856 14.9917 38.1156 14.9984 37.7276L15.2126 21.0434C15.2195 20.431 15.0395 19.831 14.6965 19.3235Z" fill="var(--fill-0, #3F3D56)"/>
<path id="Vector_3" opacity="0.2" d="M8.87305 0.687317C8.87305 1.05226 8.72807 1.40226 8.47001 1.66032C8.21196 1.91837 7.86196 2.06335 7.49701 2.06335C7.13207 2.06335 6.78207 1.91837 6.52401 1.66032C6.26596 1.40226 6.12098 1.05226 6.12098 0.687317" fill="var(--fill-0, black)"/>
<path id="Vector_4" d="M12.8769 25.0323H11.4853C11.3514 24.1714 10.9141 23.3867 10.2523 22.8199C9.59052 22.2531 8.7479 21.9416 7.87658 21.9416C7.00526 21.9416 6.16265 22.2531 5.50087 22.8199C4.8391 23.3867 4.40178 24.1714 4.26785 25.0323H2.87624C2.72817 25.0323 2.58183 25.0643 2.44728 25.1262C2.31273 25.188 2.19315 25.2782 2.09673 25.3906C2.0003 25.5029 1.92932 25.6348 1.88865 25.7772C1.84797 25.9196 1.83856 26.0691 1.86108 26.2154L3.37062 36.0402H12.0504L13.8864 26.2485C13.9142 26.1002 13.909 25.9475 13.8711 25.8015C13.8332 25.6554 13.7636 25.5195 13.6672 25.4034C13.5708 25.2873 13.4501 25.1938 13.3135 25.1297C13.1769 25.0656 13.0278 25.0323 12.8769 25.0323Z" fill="var(--fill-0, #8E743D)"/>
<g id="Group_2">
<path id="Vector_5" d="M73.4618 11.1734C74.1147 11.1734 74.644 10.6441 74.644 9.99121C74.644 9.33832 74.1147 8.80905 73.4618 8.80905C72.8089 8.80905 72.2796 9.33832 72.2796 9.99121C72.2796 10.6441 72.8089 11.1734 73.4618 11.1734Z" fill="var(--fill-0, #8E743D)"/>
<g id="Group_3">
<path id="Vector_6" d="M73.3354 9.99122L73.4769 10.1327L66.4099 17.195L64.1928 14.9779L60.301 18.8701L55.5233 14.092L47.3954 22.2199L43.7004 18.5234L35.622 26.6046L31.0901 22.0722L22.7876 30.377L22.6461 30.2355L31.0901 21.7915L35.622 26.3258L43.7004 18.247L47.395 21.9416L55.5229 13.8136L60.301 18.5918L64.1928 14.7L66.4099 16.9172L73.3354 9.99122Z" fill="var(--fill-0, #8E743D)"/>
<path id="Vector_7" d="M55.1781 15.2822C55.8309 15.2822 56.3602 14.7529 56.3602 14.1C56.3602 13.4471 55.8309 12.9179 55.1781 12.9179C54.5252 12.9179 53.9959 13.4471 53.9959 14.1C53.9959 14.7529 54.5252 15.2822 55.1781 15.2822Z" fill="var(--fill-0, #8E743D)"/>
<path id="Vector_8" d="M31.1384 23.0657C31.7913 23.0657 32.3206 22.5365 32.3206 21.8836C32.3206 21.2307 31.7913 20.7014 31.1384 20.7014C30.4856 20.7014 29.9563 21.2307 29.9563 21.8836C29.9563 22.5365 30.4856 23.0657 31.1384 23.0657Z" fill="var(--fill-0, #8E743D)"/>
</g>
</g>
<path id="Vector_9" d="M25.2958 10.2507V9.25488C24.598 9.24309 23.9257 8.99082 23.3924 8.54068C23.1526 8.31513 22.9623 8.0422 22.8336 7.73922C22.7049 7.43624 22.6406 7.10982 22.6447 6.78066H23.9962C24.0002 6.94539 24.0383 7.1075 24.108 7.25679C24.1778 7.40609 24.2777 7.53934 24.4014 7.64817C24.6566 7.8585 24.9686 7.98821 25.2977 8.02084V5.63907L24.8863 5.52538C24.3295 5.39728 23.8147 5.12847 23.3914 4.74467C23.2119 4.56526 23.0716 4.35053 22.9793 4.11407C22.8871 3.87762 22.8449 3.62458 22.8555 3.37099C22.8472 2.96025 22.9563 2.55567 23.1702 2.20488C23.3845 1.86362 23.6833 1.58349 24.0377 1.39162C24.426 1.18034 24.8546 1.05336 25.2953 1.01895V0.000958028H25.9086V1.01423C26.3613 1.03456 26.8038 1.1561 27.2035 1.36992C27.5561 1.56062 27.8537 1.83891 28.0677 2.17799C28.2789 2.51821 28.3931 2.90971 28.3979 3.31014H27.0714C27.0516 3.03066 26.9245 2.76967 26.7166 2.58179C26.4893 2.38895 26.2082 2.27056 25.9114 2.24262V4.48947L26.2553 4.58051C26.6301 4.67702 26.9924 4.81713 27.3346 4.99799C27.6694 5.1717 27.9581 5.42267 28.1766 5.73011C28.4043 6.07244 28.518 6.4779 28.5017 6.88868C28.5105 7.19471 28.4546 7.49915 28.3374 7.782C28.2203 8.06485 28.0446 8.31971 27.8219 8.52983C27.292 8.99142 26.6141 9.24767 25.9114 9.25205V10.2488L25.2958 10.2507ZM25.909 8.01517C26.2363 7.98538 26.5459 7.85334 26.794 7.63779C26.9017 7.54299 26.9875 7.42594 27.0455 7.29473C27.1035 7.16351 27.1323 7.02127 27.1299 6.87783C27.1364 6.74602 27.1092 6.61473 27.0508 6.49636C26.9925 6.37799 26.9049 6.27646 26.7964 6.20137C26.5247 6.02281 26.2251 5.89081 25.91 5.81078L25.909 8.01517ZM25.2958 4.32342V2.24781C25.0051 2.27886 24.7323 2.40371 24.5188 2.60349C24.4285 2.69161 24.3571 2.79729 24.309 2.91403C24.261 3.03077 24.2374 3.1561 24.2396 3.28231C24.2327 3.41326 24.2589 3.54384 24.3157 3.66204C24.3725 3.78024 24.4581 3.88228 24.5646 3.95877C24.7878 4.11819 25.0349 4.24111 25.2967 4.32294L25.2958 4.32342Z" fill="var(--fill-0, #8E743D)"/>
</g>
</svg>
