<svg preserveAspectRatio="none" width="100%" height="100%" overflow="visible" style="display: block;" viewBox="0 0 76.2386 32.7201" fill="none" xmlns="http://www.w3.org/2000/svg">
<g id="Group">
<path id="Vector" d="M8.40313 11.1512C13.044 11.1512 16.806 19.6763 16.806 24.3172C16.806 26.5458 15.9207 28.6831 14.3449 30.2589C12.769 31.8348 10.6317 32.7201 8.40313 32.7201C6.17453 32.7201 4.03722 31.8348 2.46136 30.2589C0.88551 28.6831 0.000204516 26.5458 0.000204516 24.3172C0.000204516 19.6763 3.76225 11.1512 8.40313 11.1512Z" fill="var(--fill-0, #F9A825)"/>
<g id="Group_2">
<path id="Vector_2" d="M75.0564 13.5155C75.7093 13.5155 76.2385 12.9862 76.2385 12.3333C76.2385 11.6804 75.7093 11.1512 75.0564 11.1512C74.4035 11.1512 73.8742 11.6804 73.8742 12.3333C73.8742 12.9862 74.4035 13.5155 75.0564 13.5155Z" fill="var(--fill-0, #8E743D)"/>
<g id="Group_3">
<path id="Vector_3" d="M74.93 12.3333L75.0715 12.4749L68.0045 19.5371L65.7874 17.32L61.8956 21.2122L57.1179 16.4341L48.99 24.562L45.295 20.8655L37.2166 28.9467L32.6847 24.4143L24.3822 32.7191L24.2407 32.5776L32.6847 24.1337L37.2166 28.6679L45.295 20.5891L48.9896 24.2837L57.1175 16.1558L61.8956 20.9339L65.7874 17.0422L68.0045 19.2593L74.93 12.3333Z" fill="var(--fill-0, #8E743D)"/>
<path id="Vector_4" d="M56.7724 17.6243C57.4253 17.6243 57.9545 17.095 57.9545 16.4422C57.9545 15.7893 57.4253 15.26 56.7724 15.26C56.1195 15.26 55.5902 15.7893 55.5902 16.4422C55.5902 17.095 56.1195 17.6243 56.7724 17.6243Z" fill="var(--fill-0, #8E743D)"/>
<path id="Vector_5" d="M32.7328 25.4078C33.3856 25.4078 33.9149 24.8785 33.9149 24.2257C33.9149 23.5728 33.3856 23.0435 32.7328 23.0435C32.0799 23.0435 31.5506 23.5728 31.5506 24.2257C31.5506 24.8785 32.0799 25.4078 32.7328 25.4078Z" fill="var(--fill-0, #8E743D)"/>
</g>
</g>
<path id="Vector_6" d="M26.8915 10.2497V9.25392C26.1937 9.24213 25.5213 8.98986 24.988 8.53972C24.7483 8.31417 24.558 8.04125 24.4293 7.73827C24.3006 7.43529 24.2362 7.10886 24.2403 6.7797H25.5919C25.5959 6.94443 25.634 7.10654 25.7037 7.25584C25.7735 7.40513 25.8733 7.53838 25.9971 7.64721C26.2523 7.85754 26.5643 7.98725 26.8934 8.01988V5.63811L26.482 5.52443C25.9251 5.39632 25.4104 5.12752 24.9871 4.74372C24.8076 4.5643 24.6672 4.34957 24.575 4.11311C24.4827 3.87666 24.4406 3.62363 24.4512 3.37004C24.4429 2.95929 24.552 2.55472 24.7659 2.20392C24.9802 1.86266 25.279 1.58253 25.6334 1.39066C26.0217 1.17939 26.4502 1.0524 26.891 1.01799V6.39112e-07H27.5042V1.01327C27.957 1.0336 28.3995 1.15514 28.7991 1.36896C29.1518 1.55966 29.4494 1.83795 29.6634 2.17703C29.8746 2.51726 29.9888 2.90875 29.9936 3.30918H28.6671C28.6473 3.02971 28.5202 2.76871 28.3123 2.58083C28.085 2.38799 27.8039 2.2696 27.5071 2.24166V4.48851L27.851 4.57955C28.2258 4.67606 28.5881 4.81618 28.9303 4.99703C29.2651 5.17075 29.5538 5.42171 29.7723 5.72916C30 6.07149 30.1137 6.47695 30.0973 6.88773C30.1062 7.19375 30.0502 7.49819 29.9331 7.78104C29.8159 8.0639 29.6402 8.31875 29.4176 8.52887C28.8877 8.99046 28.2098 9.24672 27.5071 9.25109V10.2479L26.8915 10.2497ZM27.5047 8.01422C27.832 7.98442 28.1416 7.85239 28.3897 7.63683C28.4974 7.54203 28.5832 7.42498 28.6411 7.29377C28.6991 7.16256 28.7279 7.02031 28.7256 6.87688C28.7321 6.74506 28.7049 6.61377 28.6465 6.4954C28.5881 6.37703 28.5006 6.27551 28.392 6.20042C28.1203 6.02186 27.8208 5.88985 27.5057 5.80982L27.5047 8.01422ZM26.8915 4.32246V2.24685C26.6007 2.2779 26.328 2.40275 26.1145 2.60253C26.0242 2.69066 25.9528 2.79634 25.9047 2.91307C25.8567 3.02981 25.8331 3.15514 25.8353 3.28135C25.8284 3.41231 25.8546 3.54289 25.9114 3.66109C25.9682 3.77929 26.0538 3.88132 26.1603 3.95781C26.3835 4.11723 26.6306 4.24015 26.8924 4.32199L26.8915 4.32246Z" fill="var(--fill-0, #8E743D)"/>
</g>
</svg>
