<svg preserveAspectRatio="none" width="100%" height="100%" overflow="visible" style="display: block;" viewBox="0 0 90.9601 277.524" fill="none" xmlns="http://www.w3.org/2000/svg">
<g id="Group">
<path id="Vector" d="M69.2944 259.266C69.2944 259.266 77.2232 265.943 81.3966 265.526C85.57 265.109 93.4984 265.108 90.1604 269.699C86.8225 274.29 73.0498 276.793 67.2079 277.209C61.366 277.625 48.4331 278.044 49.2629 275.54C50.0926 273.037 50.9318 261.351 54.2703 260.519C57.6087 259.687 69.2944 259.266 69.2944 259.266Z" fill="var(--fill-0, #090814)"/>
<path id="Vector_2" d="M23.7858 252.712C23.7858 252.712 29.6286 261.275 33.7605 261.993C37.8924 262.712 45.5302 264.844 41.0832 268.369C36.6362 271.894 22.6961 270.604 16.9561 269.435C11.2161 268.267 -1.35691 265.19 0.119602 263.005C1.59612 260.82 5.54118 249.786 8.98103 249.879C12.4209 249.972 23.7858 252.712 23.7858 252.712Z" fill="var(--fill-0, #090814)"/>
<path id="Vector_3" d="M73.9385 130.255C73.9385 130.255 79.3097 167.038 78.0582 173.715C76.8067 180.393 75.9712 190.826 75.9712 190.826C75.9712 190.826 76.8057 199.59 75.9712 203.763C75.1368 207.936 70.9638 261.771 70.5463 261.771C70.1288 261.771 53.8537 263.44 53.0192 261.771C52.1847 260.102 53.8537 236.731 53.8537 236.731C53.8537 236.731 54.6882 216.283 55.1062 203.763C55.5241 191.243 51.3502 178.305 51.3502 178.305C50.8308 188.549 47.0265 198.353 40.5004 206.266C29.6507 219.203 24.2258 243.408 24.2258 243.408C24.2258 243.408 22.579 249.008 23.8305 252.346C25.082 255.685 7.53316 253.003 6.28213 251.755C5.03111 250.506 9.62055 240.069 9.62055 238.4C9.62055 236.731 17.131 200.426 28.8171 189.991L29.6516 152.017C29.6516 152.017 19.2188 125.308 30.0696 122.805C40.9203 120.301 73.9385 130.255 73.9385 130.255Z" fill="var(--fill-0, #8E743D)"/>
<path id="Vector_4" d="M66.3732 31.4091C66.3732 31.4091 59.2789 48.9362 60.9483 51.4401C62.6178 53.9441 40.4993 43.0934 40.4993 43.0934C40.4993 43.0934 47.5936 25.5662 47.5936 23.4793C47.5936 21.3924 66.3732 31.4091 66.3732 31.4091Z" fill="var(--fill-0, #ED9DA0)"/>
<path id="Vector_5" d="M61.1558 35.791C69.6837 35.791 76.597 28.8778 76.597 20.3499C76.597 11.822 69.6837 4.90872 61.1558 4.90872C52.6279 4.90872 45.7147 11.822 45.7147 20.3499C45.7147 28.8778 52.6279 35.791 61.1558 35.791Z" fill="var(--fill-0, #ED9DA0)"/>
<path id="Vector_6" d="M43.5405 36.159C46.0127 35.8374 48.526 36.1523 50.8424 37.0737C53.1589 37.9951 55.2018 39.4926 56.7777 41.4244C62.2026 48.1013 63.0375 49.7712 63.0375 49.7712C63.0375 49.7712 75.9743 70.6377 73.4703 81.0705C72.8601 82.0125 72.3029 82.9878 71.8013 83.9919C70.9668 85.6609 70.9668 109.031 71.8013 112.788C72.6358 116.544 73.4703 117.795 72.6358 123.22C71.8013 128.646 79.3099 137.408 70.5423 139.081C61.7747 140.755 51.7674 129.483 42.581 129.483C36.9598 129.385 31.5878 127.146 27.5602 123.223C27.5602 123.223 30.4816 107.782 31.3151 105.696C32.1487 103.61 25.277 70.1957 31.3151 56.8721C37.3533 43.5486 39.6619 41.0121 39.6619 41.0121C39.6619 41.0121 41.037 34.9079 43.5405 36.159Z" fill="var(--fill-0, #371E1E)"/>
<path id="Vector_7" d="M64.2866 75.6456V94.0072L77.6408 138.244C77.6408 138.244 86.4046 161.197 77.6408 161.197C68.877 161.197 69.3464 139.289 69.3464 139.289L50.5149 106.11C50.5149 106.11 43.0045 79.8194 43.838 77.7325C44.6716 75.6456 64.2866 75.6456 64.2866 75.6456Z" fill="var(--fill-0, #ED9DA0)"/>
<path id="Vector_8" d="M57.1938 48.5197C57.1938 48.5197 69.7135 53.5271 66.3751 66.8813C63.0366 80.2355 66.3751 79.818 66.3751 79.818C66.3751 79.818 49.2645 78.149 43.8438 81.9049L42.5914 76.8975C42.5914 76.8975 37.5826 48.1017 57.1938 48.5197Z" fill="var(--fill-0, #371E1E)"/>
<path id="Vector_9" d="M67.3142 9.31941C68.2777 9.66128 69.3112 9.75796 70.3214 9.60075C71.3316 9.44354 72.2868 9.03737 73.1009 8.41886C73.893 7.77257 74.4508 6.88382 74.6883 5.88944C74.9258 4.89505 74.8298 3.85016 74.4151 2.91567C73.6165 1.34811 71.907 3.29306 70.2677 2.64537C66.6524 1.23119 62.8443 0.371262 58.9721 0.0947227C57.1282 -0.157378 55.2504 0.0960012 53.5392 0.827798C52.7245 1.24481 52.0165 1.8472 51.2089 2.27931C49.7248 3.07465 47.9973 3.25108 46.393 3.76243C43.0725 4.84741 40.3846 4.51342 39.0264 7.73439C38.5902 8.8146 38.2854 9.9434 38.1188 11.0964C37.639 14.2526 37.9742 17.479 39.0925 20.4692C40.8714 25.2054 44.6023 29.3462 44.8136 34.4017C47.0968 32.7446 51.7103 33.9178 53.5406 31.7709C54.902 30.1835 52.9963 24.9422 55.0502 24.5483C55.6191 24.5133 57.1409 23.1288 58.7594 15.2552C59.0778 13.7532 59.4792 12.1168 60.7128 11.2044C61.4814 10.7132 62.3533 10.4065 63.2602 10.3081C65.4147 9.93146 67.5965 9.73236 69.7837 9.71282" fill="var(--fill-0, #090814)"/>
</g>
</svg>
