<svg preserveAspectRatio="none" width="100%" height="100%" overflow="visible" style="display: block;" viewBox="0 0 112.012 85.1101" fill="none" xmlns="http://www.w3.org/2000/svg">
<g id="undraw_interview_yz52 1" clip-path="url(#clip0_0_4)">
<path id="Vector" d="M103.637 77.3605C99.9669 80.1553 95.4957 82.9864 91.0998 84.3214C89.8325 84.7176 88.5248 84.9706 87.2012 85.0755C85.9638 85.175 84.7184 85.0784 83.5111 84.7892C80.3385 84.0001 77.3958 82.6181 74.5485 81.0036C73.6182 80.4753 72.6987 79.9227 71.7846 79.3581C70.2924 78.4359 68.815 77.4815 67.3336 76.5499C67.1117 76.4087 66.8913 76.2702 66.6695 76.1331H66.6681C66.3105 75.9086 65.952 75.6873 65.5927 75.469C65.5295 75.43 65.4663 75.3924 65.4018 75.3534C64.7229 74.9421 64.0324 74.5401 63.3302 74.1476C63.2441 74.1005 63.1581 74.0521 63.0721 74.0051C61.7135 73.2515 60.3172 72.5681 58.8886 71.9577C57.9502 71.5624 56.9998 71.2062 56.0399 70.9024H56.0386C55.6716 70.7868 55.3033 70.6779 54.9336 70.5784C53.825 70.2742 52.6954 70.0532 51.554 69.917C49.9811 69.7266 48.3903 69.7392 46.8206 69.9546C46.7144 69.9694 46.6096 69.9842 46.5034 70.0017C42.2553 70.6819 38.3783 72.9753 34.1114 73.5157C33.973 73.5332 33.8359 73.5493 33.6974 73.5614C33.6382 73.5668 33.5791 73.5735 33.5199 73.5776C32.28 73.6837 31.0321 73.653 29.7989 73.4862C26.3534 73.0318 22.998 71.6216 19.9773 69.8444C12.9156 65.6891 7.1888 59.3023 3.70702 51.9058C3.10912 50.6382 2.57828 49.3401 2.11669 48.0167C0.826137 44.3471 0.115424 40.4987 0.0101419 36.6102C-0.316527 23.1186 7.35011 9.58267 19.3871 3.48081C31.4255 -2.62105 47.2616 -0.603225 56.9702 8.7707C62.8597 14.4572 66.2675 22.1628 70.6997 29.047C75.132 35.93 81.4314 42.505 89.5565 43.5079C93.6956 44.0187 98.027 43.0306 101.994 44.3158C104.191 45.0283 106.065 46.3914 107.574 48.1283C108.589 49.3069 109.439 50.6185 110.099 52.0268C110.583 53.0449 110.976 54.1039 111.273 55.1913C111.328 55.3916 111.379 55.5919 111.429 55.7922C113.405 63.8635 110.247 72.3247 103.637 77.3605Z" fill="var(--fill-0, #F2F2F2)"/>
<path id="Vector_2" d="M37.5287 62.749H24.8922C22.9989 62.749 21.4641 64.2838 21.4641 66.177V66.177C21.4641 68.0703 22.9989 69.6051 24.8922 69.6051H37.5287C39.422 69.6051 40.9568 68.0703 40.9568 66.177C40.9568 64.2838 39.422 62.749 37.5287 62.749Z" fill="var(--fill-0, #3F3D56)"/>
<path id="Vector_3" d="M33.6976 67.8574V73.5614C32.3995 73.687 31.0913 73.6617 29.7991 73.4861V67.8574H33.6976Z" fill="var(--fill-0, #3F3D56)"/>
<path id="Vector_4" d="M46.8207 69.9545C46.7145 69.9693 46.6097 69.9841 46.5035 70.0016C42.2554 70.6818 38.3784 72.9752 34.1115 73.5156C33.9731 73.5331 33.836 73.5492 33.6975 73.5613C33.6383 73.5667 33.5792 73.5734 33.52 73.5774C32.4782 72.5571 31.4363 71.4709 30.4577 70.3457C29.9267 69.7367 29.4131 69.1156 28.9305 68.4865C27.6776 66.8626 26.6156 65.1929 25.9139 63.5529C25.9851 62.7664 25.4958 60.9476 25.2619 59.5549L25.2605 59.5535C25.1611 58.9687 25.1073 58.4606 25.157 58.1339C25.442 56.2492 26.9813 56.4656 27.4545 54.6185C27.8813 54.2642 28.3358 53.9446 28.8136 53.6627C28.8929 53.6157 28.9736 53.5686 29.0569 53.5216L34.1922 49.9726L36.1549 51.8976L39.142 54.8282L42.3791 58.0022L39.6313 60.7782C39.6313 60.7782 41.9274 63.4252 44.612 66.954C45.3326 67.9017 46.0813 68.914 46.8207 69.9545Z" fill="var(--fill-0, #2F2E41)"/>
<path id="Vector_5" d="M91.0999 67.8574V84.3213C89.8327 84.7176 88.525 84.9706 87.2014 85.0755V67.8574H91.0999Z" fill="var(--fill-0, #3F3D56)"/>
<path id="Vector_6" d="M96.1409 66.5131H83.5043C81.6111 66.5131 80.0763 68.0479 80.0763 69.9411V69.9411C80.0763 71.8344 81.6111 73.3691 83.5043 73.3691H96.1409C98.0342 73.3691 99.5689 71.8344 99.5689 69.9411C99.5689 68.0479 98.0342 66.5131 96.1409 66.5131Z" fill="var(--fill-0, #3F3D56)"/>
<path id="Vector_7" d="M65.402 75.3534C64.7231 74.942 64.0326 74.5401 63.3304 74.1475C63.2443 74.1005 63.1583 74.0521 63.0723 74.005L63.5347 73.8074L64.7822 73.271L64.7943 73.2656L64.8078 73.3114L65.402 75.3534Z" fill="var(--fill-0, #FFB6B6)"/>
<path id="Vector_8" d="M67.3336 76.5498C67.1118 76.4086 66.8914 76.2702 66.6695 76.1331H66.6682C66.3106 75.9086 65.9521 75.6872 65.5927 75.469C65.5296 75.43 65.4664 75.3923 65.4018 75.3533C64.723 74.942 64.0324 74.54 63.3303 74.1475C63.2442 74.1004 63.1582 74.052 63.0721 74.005C61.7136 73.2514 60.3172 72.568 58.8886 71.9576C57.9503 71.5624 56.9999 71.2061 56.04 70.9023H56.0387L55.2845 69.64L51.8901 63.9549L51.144 62.706C51.144 62.706 48.5992 63.4588 44.9978 64.1807C43.6871 64.4442 42.2379 64.7023 40.7175 64.9201C39.0922 65.1513 37.3876 65.3355 35.6938 65.4242C34.8858 65.4672 34.0806 65.4887 33.2874 65.482C31.2374 65.4686 29.2679 65.2763 27.5432 64.8193C26.9678 64.2789 25.2336 63.5435 23.9915 62.87H23.9901C23.4685 62.5877 23.0357 62.3175 22.8085 62.0769C21.4991 60.6922 22.6176 59.6127 21.4534 58.1017C21.4377 57.5474 21.4661 56.9927 21.5381 56.4428C21.5502 56.3514 21.5623 56.2587 21.5771 56.1646L21.9441 49.9323L24.6704 49.572L28.8189 49.0235L33.313 48.4294L33.8077 52.3037C33.8077 52.3037 37.307 52.1262 41.7405 52.1854C48.8614 52.2822 58.3899 52.992 59.6804 56.0382C59.8014 56.3245 59.9224 56.6136 60.0434 56.9026C60.3311 57.5936 60.6161 58.2881 60.8984 58.9863C61.9214 61.5136 62.8974 64.0651 63.7887 66.4768C64.3425 67.9771 64.8641 69.4236 65.344 70.7773C65.7299 71.8662 66.0874 72.8959 66.4141 73.8437C66.7126 74.7094 66.9828 75.5066 67.2234 76.2218C67.261 76.3334 67.2973 76.4436 67.3336 76.5498Z" fill="var(--fill-0, #2F2E41)"/>
<path id="Vector_9" d="M42.2545 38.7895L33.6435 31.4763L39.2459 25.8063L43.1545 32.2084L57.6428 35.0808C58.0784 34.7529 58.6 34.5589 59.144 34.5224C59.6881 34.4859 60.2309 34.6084 60.7065 34.8751C61.1821 35.1418 61.5698 35.541 61.8223 36.0243C62.0749 36.5075 62.1814 37.0537 62.1289 37.5964C62.0763 38.1391 61.867 38.6548 61.5265 39.0806C61.1859 39.5064 60.7288 39.8239 60.211 39.9944C59.6931 40.1649 59.1368 40.1811 58.6099 40.0409C58.083 39.9007 57.6082 39.6103 57.2436 39.2049L42.2545 38.7895Z" fill="var(--fill-0, #A0616A)"/>
<path id="Vector_10" d="M26.0333 21.8649C25.0382 25.1024 34.5159 32.8238 34.5159 32.8238C34.6212 32.0466 39.9948 38.7487 40.3604 38.1417C41.3994 36.4166 42.5427 32.1525 43.7423 31.6075C44.4282 31.2958 40.4929 26.9638 40.4929 26.9638C40.4929 26.9638 38.4855 24.3079 35.8351 20.942C35.1034 19.9765 34.1393 19.2118 33.0326 18.7191C31.9259 18.2264 30.7126 18.0217 29.5055 18.1241C29.5055 18.1241 27.0285 18.6275 26.0333 21.8649Z" fill="var(--fill-0, #1B314C)"/>
<path id="Vector_11" d="M30.2237 14.6979C33.4403 14.6979 36.0479 12.0903 36.0479 8.87374C36.0479 5.65717 33.4403 3.04962 30.2237 3.04962C27.0072 3.04962 24.3996 5.65717 24.3996 8.87374C24.3996 12.0903 27.0072 14.6979 30.2237 14.6979Z" fill="var(--fill-0, #A0616A)"/>
<path id="Vector_12" d="M33.136 18.5472C34.3908 19.2931 35.1413 20.6637 35.5722 22.0584C36.3699 24.6404 36.8501 27.3101 37.0021 30.0082L37.4572 38.0862L43.0934 55.2864C38.2087 59.4196 19.8476 56.2257 19.8476 56.2257C19.8476 56.2257 19.284 56.0379 19.8476 55.4742C20.4112 54.9106 20.9599 55.4099 20.3963 54.8463C19.8327 54.2827 20.2212 54.9106 20.4091 54.347C20.597 53.7833 20.4091 54.1591 20.2212 53.9712C20.0334 53.7833 21.6757 52.0925 21.6757 52.0925L20.1727 42.2194L18.2939 22.3047C20.5484 19.4865 25.0825 17.8253 25.0825 17.8253L26.2541 15.7165L32.1118 16.1851L33.136 18.5472Z" fill="var(--fill-0, #1B314C)"/>
<path id="Vector_13" d="M35.0251 5.77945C35.4777 6.11707 35.8131 6.58816 35.9839 7.1264C36.0496 6.24681 36.0537 5.36371 35.9964 4.48354C35.9278 3.86504 35.4923 3.72592 34.9881 3.56472C34.5328 3.41908 34.0178 3.25456 33.8793 2.65414C32.0485 0.873126 28.8615 0.962934 26.6804 1.58418C25.4802 1.92604 24.7897 2.36526 24.7279 2.62256L24.7151 2.67552L24.6663 2.69989C23.7412 3.16245 23.5611 4.62312 23.573 5.76698C23.5956 7.92211 24.3397 10.3698 24.7589 10.5686C24.7811 10.5792 24.7867 10.575 24.7963 10.567C25.4275 10.0626 26.1976 10.6054 26.536 10.9004C26.7356 9.56097 27.3783 8.32705 28.3615 7.39572C29.3446 6.46439 30.6115 5.88938 31.9598 5.76253C32.4001 5.71997 32.8369 5.64673 33.267 5.54333C33.4852 5.48689 33.7095 5.45745 33.9348 5.45569C34.3228 5.4498 34.7032 5.56278 35.0251 5.77945Z" fill="var(--fill-0, #2F2E41)"/>
<path id="Vector_14" d="M27.6863 47.5643L25.9047 46.6518C25.8092 46.5838 25.7414 46.4837 25.7136 46.3698C25.6859 46.256 25.7 46.1359 25.7534 46.0316C25.8069 45.9273 25.896 45.8456 26.0047 45.8016C26.1133 45.7576 26.2341 45.7541 26.3451 45.7918L28.1267 46.7043C28.2222 46.7723 28.29 46.8724 28.3177 46.9863C28.3455 47.1001 28.3314 47.2202 28.2779 47.3245C28.2245 47.4288 28.1353 47.5105 28.0267 47.5545C27.9181 47.5985 27.7972 47.602 27.6863 47.5643Z" fill="var(--fill-0, #6C63FF)"/>
<path id="Vector_15" d="M21.6902 45.1198L18.7595 34.209L26.5913 32.7264L26.1701 40.2155L36.4604 50.8112C37.0052 50.7889 37.5447 50.9256 38.0131 51.2047C38.4816 51.4837 38.8587 51.893 39.0985 52.3827C39.3383 52.8723 39.4305 53.4212 39.3637 53.9623C39.297 54.5035 39.0743 55.0135 38.7227 55.4302C38.3711 55.847 37.9059 56.1524 37.3837 56.3093C36.8616 56.4662 36.305 56.4678 35.782 56.3138C35.2589 56.1599 34.792 55.8571 34.438 55.4424C34.0841 55.0276 33.8585 54.5189 33.7887 53.9781L21.6902 45.1198Z" fill="var(--fill-0, #A0616A)"/>
<path id="Vector_16" d="M17.958 21.9757C15.2996 24.0744 18.7117 35.8135 18.7117 35.8135C19.2399 35.2337 19.8538 43.8021 20.4995 43.5103C22.3347 42.6811 25.6984 39.8218 26.9951 40.0548C27.7367 40.1881 26.9597 34.3873 26.9597 34.3873C26.9597 34.3873 26.8168 31.0612 26.5483 26.7854C26.4947 25.5752 26.1359 24.3982 25.5051 23.3639C24.8744 22.3297 23.9922 21.4718 22.9407 20.8702C22.9407 20.8702 20.6164 19.877 17.958 21.9757Z" fill="var(--fill-0, #1B314C)"/>
<path id="Vector_17" d="M110.099 52.0267L3.70708 51.9057C3.10918 50.6381 2.57834 49.3399 2.11675 48.0166L107.574 48.1282C108.589 49.3068 109.439 50.6184 110.099 52.0267Z" fill="var(--fill-0, #3F3D56)"/>
<path id="Vector_18" d="M76.2129 80.2332C75.663 80.4994 75.1083 80.7561 74.5486 81.0035C73.6183 80.4752 72.6988 79.9227 71.7847 79.358L75.175 77.8685L76.2129 80.2332Z" fill="var(--fill-0, #FFB6B6)"/>
<path id="Vector_19" d="M100.932 61.7085C100.381 62.4479 99.8125 63.1725 99.2264 63.8823C98.686 64.537 98.1312 65.1791 97.5621 65.8087C97.3269 66.0695 97.0889 66.329 96.8456 66.5857C96.398 67.0656 95.9404 67.5375 95.4731 68.0013C94.6315 68.2661 92.9269 68.7326 91.1 69.1682C89.7705 69.4841 88.3764 69.7839 87.2015 69.9747C86.5437 70.0928 85.8784 70.1638 85.2105 70.1872C84.4174 70.1939 83.6122 70.1724 82.8042 70.1293C81.8928 70.081 80.98 70.0057 80.0779 69.9089C77.7321 69.6629 75.4602 69.2797 73.5002 68.8859C72.7823 68.7434 72.1075 68.5982 71.4864 68.457C70.3101 68.1922 69.3261 67.9448 68.6136 67.7566C67.811 67.5469 67.354 67.4111 67.354 67.4111L65.3442 70.7773L64.301 72.5236L63.5348 73.8074L63.3304 74.1475C63.2444 74.1005 63.1584 74.0521 63.0723 74.005C61.7138 73.2514 60.3174 72.5681 58.8888 71.9576C57.9505 71.5624 57.0001 71.2061 56.0402 70.9023H56.0389C55.6719 70.7867 55.3035 70.6778 54.9338 70.5783C55.0494 70.2678 55.1664 69.955 55.2847 69.64C55.5052 69.0525 55.7301 68.4597 55.9596 67.8615C56.4556 66.5656 56.9691 65.2508 57.4975 63.9428C57.9303 62.8687 58.3713 61.7986 58.8176 60.7433C59.0233 60.2567 59.4413 59.8292 60.0261 59.4541C60.3056 59.2779 60.5971 59.1216 60.8986 58.9863C62.5723 58.2241 65.0377 57.728 67.7546 57.4094C67.9791 57.3839 68.2049 57.3583 68.4321 57.3341C70.6812 57.0975 73.0673 56.9752 75.2989 56.9187C76.416 56.8905 77.4942 56.8798 78.497 56.8784C78.821 56.8784 79.136 56.8793 79.4421 56.8811H79.4434C80.2702 56.8851 81.0311 56.8972 81.7006 56.9107C81.831 56.9134 81.9573 56.9174 82.081 56.9201H82.0823C82.1657 56.9214 82.2477 56.9241 82.3283 56.9255C83.7923 56.9631 84.6903 57.0088 84.6903 57.0088L85.0385 54.2772L85.1097 53.726L85.177 53.2017V53.2004L85.185 53.1345L85.2401 53.1331L86.2081 53.1143L94.3439 52.9557L98.7882 52.8683L98.0838 55.8876L96.9209 60.8697C97.0392 61.6575 100.973 61.0404 100.932 61.7085Z" fill="var(--fill-0, #2F2E41)"/>
<path id="Vector_20" d="M77.2158 79.7358C76.8837 79.9052 76.549 80.0719 76.2129 80.2332C75.6631 80.4994 75.1083 80.7561 74.5486 81.0035C73.6184 80.4752 72.6989 79.9227 71.7847 79.358C70.2925 78.4358 68.8151 77.4814 67.3337 76.5498C67.1119 76.4086 66.8914 76.2701 66.6696 76.133H66.6683C66.0579 75.227 65.4355 74.2832 64.8077 73.3113C64.7983 73.2979 64.7902 73.2844 64.7822 73.271C64.6209 73.0236 64.4604 72.7745 64.3009 72.5235C63.2967 70.9507 62.2871 69.3106 61.3071 67.6356L63.7887 66.4768L68.4024 64.3232L69.1983 63.9522L71.4863 68.457L73.527 72.4751L73.9813 73.3691L77.2158 79.7358Z" fill="var(--fill-0, #2F2E41)"/>
<path id="Vector_21" d="M77.9111 58.1081L89.6739 46.7643L92.9342 37.5329L88.1252 35.4417C85.6551 37.8079 82.985 45.1779 82.985 45.1779L74.8905 55.4759C74.8274 55.4975 74.7645 55.5205 74.7023 55.5479C74.3378 55.7087 74.0208 55.9608 73.7821 56.2798C73.5435 56.5989 73.3911 56.9741 73.3398 57.3693C73.2885 57.7644 73.34 58.1661 73.4894 58.5355C73.6387 58.9049 73.8808 59.2296 74.1922 59.4781C74.5037 59.7266 74.874 59.8906 75.2674 59.9541C75.6607 60.0177 76.0638 59.9788 76.4377 59.841C76.8116 59.7033 77.1436 59.4714 77.4017 59.1679C77.6598 58.8643 77.8353 58.4993 77.9111 58.1081Z" fill="var(--fill-0, #FFB8B8)"/>
<path id="Vector_22" d="M86.7721 36.4724L92.872 38.4089L92.895 38.4051C95.1654 38.0248 97.0493 34.3167 98.2299 31.273C98.6183 30.269 98.6111 29.155 98.2096 28.1562C97.8081 27.1574 97.0424 26.3483 96.0672 25.8924C95.3456 25.561 94.5456 25.438 93.7577 25.5374C92.9699 25.6368 92.2255 25.9546 91.6088 26.4549L88.4765 29.0144L86.7721 36.4724Z" fill="var(--fill-0, #6C63FF)"/>
<path id="Vector_23" d="M100.908 61.8447L100.943 61.7973C102.847 59.2732 100.244 53.0225 99.8501 52.116L101.62 51.5918L101.311 48.2224L101.163 46.72L102.539 45.4133L102.543 45.38L103.489 38.646L104.728 34.1891C105.194 32.5041 105.204 30.7254 104.756 29.0354C104.308 27.3454 103.419 25.8051 102.179 24.5725L99.6476 22.0596L96.6154 17.3133L91.5312 17.182L89.703 20.4298C88.0028 20.7767 86.4783 21.7092 85.3949 23.0646C84.3115 24.4201 83.7379 26.1127 83.7742 27.8475L83.9463 36.4936L82.122 47.2061L82.0708 49.1519L80.2803 51.0414L80.6113 52.9516L79.272 53.4851L78.6166 56.1995C78.3663 56.5127 76.7135 58.6018 76.6985 59.1842C76.6962 59.2716 76.7586 59.3578 76.8947 59.4552C77.9645 60.2206 83.9439 61.8791 86.6351 60.882C89.5016 59.8208 100.736 61.8139 100.849 61.8341L100.908 61.8447Z" fill="var(--fill-0, #1B314C)"/>
<path id="Vector_24" d="M93.629 15.727C97.3489 15.727 100.365 12.7114 100.365 8.99152C100.365 5.2716 97.3489 2.256 93.629 2.256C89.9091 2.256 86.8935 5.2716 86.8935 8.99152C86.8935 12.7114 89.9091 15.727 93.629 15.727Z" fill="var(--fill-0, #FFB8B8)"/>
<path id="Vector_25" d="M92.8075 15.8171C93.8505 15.8334 94.8931 15.7606 95.9237 15.5994C96.9453 15.3916 99.2306 13.7169 99.8677 12.7091C100.341 11.9603 100.644 10.7911 100.814 9.9421C101.044 8.81863 101.035 7.65943 100.789 6.53957C100.542 5.4197 100.063 4.36414 99.3821 3.44123C99.1206 3.0552 98.7595 2.74705 98.3372 2.54937C98.2997 2.53473 98.2612 2.52176 98.2223 2.51067C97.6069 2.34875 97.0539 2.00659 96.6344 1.52812C96.5531 1.43135 96.4648 1.34055 96.3705 1.25645C95.8963 0.856302 95.3342 0.574045 94.73 0.432752C93.7549 0.171765 92.3436 0.43083 90.5355 1.2035C89.6271 1.5917 88.6337 1.45121 87.8694 1.28542C87.8265 1.27714 87.7823 1.28023 87.7409 1.29438C87.6996 1.30854 87.6628 1.33326 87.634 1.36608C87.3088 1.67134 86.8802 1.84221 86.4342 1.84435C86.161 1.85634 85.8744 2.23457 85.528 2.7278C85.4494 2.83976 85.3577 2.97043 85.2915 3.0499L85.2826 2.89721L85.1281 3.06755C84.8853 3.33527 84.7141 3.66011 84.6305 4.0118C84.547 4.36349 84.5538 4.73061 84.6503 5.07896C84.7469 5.42732 84.93 5.74558 85.1826 6.0041C85.4353 6.26263 85.7492 6.45303 86.0953 6.55755C86.3701 6.63066 86.6516 6.67552 86.9355 6.69144C87.1074 6.70691 87.2853 6.72292 87.4558 6.75249C88.0029 6.86452 88.5116 7.1165 88.9322 7.48383C89.3529 7.85116 89.6711 8.32128 89.8558 8.8483C89.8994 8.97012 89.9705 9.08028 90.0635 9.17026C90.1565 9.26024 90.269 9.32765 90.3922 9.36728C90.5154 9.40691 90.646 9.4177 90.7741 9.39881C90.9021 9.37993 91.0241 9.33187 91.1306 9.25836C91.3081 9.12009 91.5165 9.02681 91.7379 8.9865C91.9594 8.94618 92.1872 8.96001 92.4022 9.02681C92.5879 9.13009 92.7325 9.29407 92.8116 9.49127C92.9079 9.71098 93.0673 9.89704 93.2697 10.0257C93.962 10.3827 94.0097 11.9638 93.7611 13.282C93.5214 14.5525 93.0477 15.4716 92.609 15.5171C92.2713 15.552 92.2327 15.576 92.2083 15.6357L92.1864 15.6892L92.2244 15.7392C92.4109 15.8068 92.6098 15.8334 92.8075 15.8171Z" fill="var(--fill-0, #2F2E41)"/>
<path id="Vector_26" d="M88.4448 34.436L85.8477 29.2583C82.0781 29.5158 74.5965 33.8744 74.5965 33.8744L60.441 36.8756C60.0217 36.7144 59.5673 36.6666 59.1235 36.7368C58.6798 36.8071 58.2624 36.993 57.9134 37.2758C57.5643 37.5586 57.296 37.9284 57.1353 38.348C56.9746 38.7675 56.9272 39.222 56.998 39.6656C57.0688 40.1093 57.2552 40.5264 57.5385 40.8751C57.8217 41.2238 58.1918 41.4918 58.6116 41.652C59.0313 41.8122 59.4858 41.859 59.9294 41.7876C60.3729 41.7163 60.7899 41.5294 61.1383 41.2458L79.1449 39.955L88.4448 34.436Z" fill="var(--fill-0, #FFB8B8)"/>
<path id="Vector_27" d="M87.3973 35.2862L94.1799 30.2457L95.3747 25.9403C95.6061 25.0942 95.5963 24.2002 95.3464 23.3594C95.0965 22.5186 94.6163 21.7644 93.9603 21.1822C93.0656 20.3989 91.9069 19.9845 90.7184 20.0228C89.53 20.0612 88.4004 20.5494 87.5581 21.3887C85.0057 23.9364 82.0945 27.4906 82.7199 29.9552L82.7262 29.9802L87.3973 35.2862Z" fill="var(--fill-0, #1B314C)"/>
<path id="Vector_28" d="M79.0008 48.7681H60.8525V51.1879H79.0008V48.7681Z" fill="var(--fill-0, white)"/>
<path id="Vector_29" d="M32.6219 48.7681H14.4736V51.1879H32.6219V48.7681Z" fill="var(--fill-0, white)"/>
<path id="Vector_30" d="M34.7412 37.1315V48.6528C34.7413 48.7996 34.7997 48.9404 34.9035 49.0442C35.0073 49.1481 35.1481 49.2064 35.2949 49.2066H52.3683C52.5152 49.2064 52.6559 49.1481 52.7597 49.0442C52.8636 48.9404 52.9219 48.7996 52.9221 48.6528V37.1315C52.9217 36.9848 52.8632 36.8442 52.7595 36.7405C52.6557 36.6369 52.515 36.5785 52.3683 36.5784H35.2949C35.1482 36.5785 35.0076 36.6369 34.9038 36.7405C34.8 36.8442 34.7415 36.9848 34.7412 37.1315Z" fill="var(--fill-0, #3F3D56)"/>
<path id="Vector_31" d="M35.1418 37.2748V48.5107C35.1419 48.5891 35.1731 48.6643 35.2286 48.7198C35.2841 48.7752 35.3593 48.8065 35.4377 48.8066H52.2263C52.3047 48.8065 52.3799 48.7752 52.4354 48.7198C52.4909 48.6643 52.5221 48.5891 52.5222 48.5107V37.2748C52.5222 37.1963 52.4911 37.1209 52.4356 37.0653C52.3801 37.0097 52.3048 36.9784 52.2263 36.9782H35.4377C35.3592 36.9784 35.2839 37.0097 35.2284 37.0653C35.173 37.1209 35.1418 37.1963 35.1418 37.2748Z" fill="var(--fill-0, #8E743D)"/>
<path id="Vector_32" d="M34.3841 50.8998C34.4154 50.939 34.4551 50.9706 34.5004 50.9923C34.5456 51.0139 34.5952 51.025 34.6453 51.0248H52.927C52.977 51.0247 53.0263 51.0135 53.0715 50.992C53.1166 50.9704 53.1563 50.9391 53.1878 50.9003C53.2193 50.8615 53.2418 50.8161 53.2535 50.7675C53.2653 50.7189 53.2661 50.6683 53.2558 50.6194L52.972 49.2714C52.9603 49.2164 52.9349 49.1653 52.8984 49.1226C52.8618 49.0799 52.8151 49.047 52.7626 49.027C52.7245 49.0121 52.684 49.0045 52.6432 49.0045H34.928C34.8872 49.0045 34.8467 49.0121 34.8086 49.027C34.7561 49.047 34.7094 49.0799 34.6728 49.1226C34.6363 49.1653 34.6109 49.2164 34.5992 49.2714L34.3154 50.6194C34.3053 50.6683 34.3062 50.7188 34.3181 50.7673C34.33 50.8158 34.3525 50.8611 34.3841 50.8998Z" fill="var(--fill-0, #2F2E41)"/>
<path id="Vector_33" d="M52.016 49.5851H52.4478C52.484 49.5851 52.5134 49.5557 52.5134 49.5195V49.3129C52.5134 49.2767 52.484 49.2473 52.4478 49.2473H52.016C51.9797 49.2473 51.9503 49.2767 51.9503 49.3129V49.5195C51.9503 49.5557 51.9797 49.5851 52.016 49.5851Z" fill="var(--fill-0, #3F3D56)"/>
<path id="Vector_34" d="M50.8899 49.5851H51.3217C51.358 49.5851 51.3873 49.5557 51.3873 49.5195V49.3129C51.3873 49.2767 51.358 49.2473 51.3217 49.2473H50.8899C50.8537 49.2473 50.8243 49.2767 50.8243 49.3129V49.5195C50.8243 49.5557 50.8537 49.5851 50.8899 49.5851Z" fill="var(--fill-0, #3F3D56)"/>
<path id="Vector_35" d="M49.7639 49.5851H50.1957C50.2319 49.5851 50.2613 49.5557 50.2613 49.5195V49.3129C50.2613 49.2767 50.2319 49.2473 50.1957 49.2473H49.7639C49.7276 49.2473 49.6982 49.2767 49.6982 49.3129V49.5195C49.6982 49.5557 49.7276 49.5851 49.7639 49.5851Z" fill="var(--fill-0, #3F3D56)"/>
<path id="Vector_36" d="M48.6376 49.5851H49.0694C49.1056 49.5851 49.135 49.5557 49.135 49.5195V49.3129C49.135 49.2767 49.1056 49.2473 49.0694 49.2473H48.6376C48.6013 49.2473 48.5719 49.2767 48.5719 49.3129V49.5195C48.5719 49.5557 48.6013 49.5851 48.6376 49.5851Z" fill="var(--fill-0, #3F3D56)"/>
<path id="Vector_37" d="M47.5115 49.5851H47.9433C47.9796 49.5851 48.009 49.5557 48.009 49.5195V49.3129C48.009 49.2767 47.9796 49.2473 47.9433 49.2473H47.5115C47.4753 49.2473 47.4459 49.2767 47.4459 49.3129V49.5195C47.4459 49.5557 47.4753 49.5851 47.5115 49.5851Z" fill="var(--fill-0, #3F3D56)"/>
<path id="Vector_38" d="M46.3855 49.5851H46.8173C46.8535 49.5851 46.8829 49.5557 46.8829 49.5195V49.3129C46.8829 49.2767 46.8535 49.2473 46.8173 49.2473H46.3855C46.3492 49.2473 46.3199 49.2767 46.3199 49.3129V49.5195C46.3199 49.5557 46.3492 49.5851 46.3855 49.5851Z" fill="var(--fill-0, #3F3D56)"/>
<path id="Vector_39" d="M45.2592 49.5851H45.691C45.7273 49.5851 45.7566 49.5557 45.7566 49.5195V49.3129C45.7566 49.2767 45.7273 49.2473 45.691 49.2473H45.2592C45.223 49.2473 45.1936 49.2767 45.1936 49.3129V49.5195C45.1936 49.5557 45.223 49.5851 45.2592 49.5851Z" fill="var(--fill-0, #3F3D56)"/>
<path id="Vector_40" d="M44.1331 49.5851H44.565C44.6012 49.5851 44.6306 49.5557 44.6306 49.5195V49.3129C44.6306 49.2767 44.6012 49.2473 44.565 49.2473H44.1331C44.0969 49.2473 44.0675 49.2767 44.0675 49.3129V49.5195C44.0675 49.5557 44.0969 49.5851 44.1331 49.5851Z" fill="var(--fill-0, #3F3D56)"/>
<path id="Vector_41" d="M43.0069 49.5851H43.4387C43.4749 49.5851 43.5043 49.5557 43.5043 49.5195V49.3129C43.5043 49.2767 43.4749 49.2473 43.4387 49.2473H43.0069C42.9706 49.2473 42.9412 49.2767 42.9412 49.3129V49.5195C42.9412 49.5557 42.9706 49.5851 43.0069 49.5851Z" fill="var(--fill-0, #3F3D56)"/>
<path id="Vector_42" d="M41.8808 49.5851H42.3126C42.3489 49.5851 42.3783 49.5557 42.3783 49.5195V49.3129C42.3783 49.2767 42.3489 49.2473 42.3126 49.2473H41.8808C41.8446 49.2473 41.8152 49.2767 41.8152 49.3129V49.5195C41.8152 49.5557 41.8446 49.5851 41.8808 49.5851Z" fill="var(--fill-0, #3F3D56)"/>
<path id="Vector_43" d="M40.7545 49.5851H41.1863C41.2226 49.5851 41.252 49.5557 41.252 49.5195V49.3129C41.252 49.2767 41.2226 49.2473 41.1863 49.2473H40.7545C40.7183 49.2473 40.6889 49.2767 40.6889 49.3129V49.5195C40.6889 49.5557 40.7183 49.5851 40.7545 49.5851Z" fill="var(--fill-0, #3F3D56)"/>
<path id="Vector_44" d="M39.6285 49.5851H40.0603C40.0965 49.5851 40.1259 49.5557 40.1259 49.5195V49.3129C40.1259 49.2767 40.0965 49.2473 40.0603 49.2473H39.6285C39.5922 49.2473 39.5629 49.2767 39.5629 49.3129V49.5195C39.5629 49.5557 39.5922 49.5851 39.6285 49.5851Z" fill="var(--fill-0, #3F3D56)"/>
<path id="Vector_45" d="M38.5024 49.5851H38.9342C38.9705 49.5851 38.9999 49.5557 38.9999 49.5195V49.3129C38.9999 49.2767 38.9705 49.2473 38.9342 49.2473H38.5024C38.4662 49.2473 38.4368 49.2767 38.4368 49.3129V49.5195C38.4368 49.5557 38.4662 49.5851 38.5024 49.5851Z" fill="var(--fill-0, #3F3D56)"/>
<path id="Vector_46" d="M37.3761 49.5851H37.808C37.8442 49.5851 37.8736 49.5557 37.8736 49.5195V49.3129C37.8736 49.2767 37.8442 49.2473 37.808 49.2473H37.3761C37.3399 49.2473 37.3105 49.2767 37.3105 49.3129V49.5195C37.3105 49.5557 37.3399 49.5851 37.3761 49.5851Z" fill="var(--fill-0, #3F3D56)"/>
<path id="Vector_47" d="M36.2501 49.5851H36.6819C36.7182 49.5851 36.7475 49.5557 36.7475 49.5195V49.3129C36.7475 49.2767 36.7182 49.2473 36.6819 49.2473H36.2501C36.2139 49.2473 36.1845 49.2767 36.1845 49.3129V49.5195C36.1845 49.5557 36.2139 49.5851 36.2501 49.5851Z" fill="var(--fill-0, #3F3D56)"/>
<path id="Vector_48" d="M35.1241 49.5851H35.5559C35.5921 49.5851 35.6215 49.5557 35.6215 49.5195V49.3129C35.6215 49.2767 35.5921 49.2473 35.5559 49.2473H35.1241C35.0878 49.2473 35.0584 49.2767 35.0584 49.3129V49.5195C35.0584 49.5557 35.0878 49.5851 35.1241 49.5851Z" fill="var(--fill-0, #3F3D56)"/>
<path id="Vector_49" d="M52.0294 50.1482H52.4612C52.4974 50.1482 52.5268 50.1188 52.5268 50.0826V49.876C52.5268 49.8397 52.4974 49.8104 52.4612 49.8104H52.0294C51.9931 49.8104 51.9637 49.8397 51.9637 49.876V50.0826C51.9637 50.1188 51.9931 50.1482 52.0294 50.1482Z" fill="var(--fill-0, #3F3D56)"/>
<path id="Vector_50" d="M50.9031 50.1482H51.3349C51.3711 50.1482 51.4005 50.1188 51.4005 50.0826V49.876C51.4005 49.8397 51.3711 49.8104 51.3349 49.8104H50.9031C50.8668 49.8104 50.8375 49.8397 50.8375 49.876V50.0826C50.8375 50.1188 50.8668 50.1482 50.9031 50.1482Z" fill="var(--fill-0, #3F3D56)"/>
<path id="Vector_51" d="M49.777 50.1482H50.2088C50.2451 50.1482 50.2745 50.1188 50.2745 50.0826V49.876C50.2745 49.8397 50.2451 49.8104 50.2088 49.8104H49.777C49.7408 49.8104 49.7114 49.8397 49.7114 49.876V50.0826C49.7114 50.1188 49.7408 50.1482 49.777 50.1482Z" fill="var(--fill-0, #3F3D56)"/>
<path id="Vector_52" d="M48.651 50.1482H49.0828C49.1191 50.1482 49.1484 50.1188 49.1484 50.0826V49.876C49.1484 49.8397 49.1191 49.8104 49.0828 49.8104H48.651C48.6148 49.8104 48.5854 49.8397 48.5854 49.876V50.0826C48.5854 50.1188 48.6148 50.1482 48.651 50.1482Z" fill="var(--fill-0, #3F3D56)"/>
<path id="Vector_53" d="M47.5247 50.1482H47.9565C47.9928 50.1482 48.0221 50.1188 48.0221 50.0826V49.876C48.0221 49.8397 47.9928 49.8104 47.9565 49.8104H47.5247C47.4885 49.8104 47.4591 49.8397 47.4591 49.876V50.0826C47.4591 50.1188 47.4885 50.1482 47.5247 50.1482Z" fill="var(--fill-0, #3F3D56)"/>
<path id="Vector_54" d="M46.3987 50.1482H46.8305C46.8667 50.1482 46.8961 50.1188 46.8961 50.0826V49.876C46.8961 49.8397 46.8667 49.8104 46.8305 49.8104H46.3987C46.3624 49.8104 46.333 49.8397 46.333 49.876V50.0826C46.333 50.1188 46.3624 50.1482 46.3987 50.1482Z" fill="var(--fill-0, #3F3D56)"/>
<path id="Vector_55" d="M45.2726 50.1482H45.7044C45.7407 50.1482 45.7701 50.1188 45.7701 50.0826V49.876C45.7701 49.8397 45.7407 49.8104 45.7044 49.8104H45.2726C45.2364 49.8104 45.207 49.8397 45.207 49.876V50.0826C45.207 50.1188 45.2364 50.1482 45.2726 50.1482Z" fill="var(--fill-0, #3F3D56)"/>
<path id="Vector_56" d="M44.1463 50.1482H44.5781C44.6144 50.1482 44.6438 50.1188 44.6438 50.0826V49.876C44.6438 49.8397 44.6144 49.8104 44.5781 49.8104H44.1463C44.1101 49.8104 44.0807 49.8397 44.0807 49.876V50.0826C44.0807 50.1188 44.1101 50.1482 44.1463 50.1482Z" fill="var(--fill-0, #3F3D56)"/>
<path id="Vector_57" d="M43.0203 50.1482H43.4521C43.4883 50.1482 43.5177 50.1188 43.5177 50.0826V49.876C43.5177 49.8397 43.4883 49.8104 43.4521 49.8104H43.0203C42.984 49.8104 42.9547 49.8397 42.9547 49.876V50.0826C42.9547 50.1188 42.984 50.1482 43.0203 50.1482Z" fill="var(--fill-0, #3F3D56)"/>
<path id="Vector_58" d="M41.8942 50.1482H42.3261C42.3623 50.1482 42.3917 50.1188 42.3917 50.0826V49.876C42.3917 49.8397 42.3623 49.8104 42.3261 49.8104H41.8942C41.858 49.8104 41.8286 49.8397 41.8286 49.876V50.0826C41.8286 50.1188 41.858 50.1482 41.8942 50.1482Z" fill="var(--fill-0, #3F3D56)"/>
<path id="Vector_59" d="M40.768 50.1482H41.1998C41.236 50.1482 41.2654 50.1188 41.2654 50.0826V49.876C41.2654 49.8397 41.236 49.8104 41.1998 49.8104H40.768C40.7317 49.8104 40.7023 49.8397 40.7023 49.876V50.0826C40.7023 50.1188 40.7317 50.1482 40.768 50.1482Z" fill="var(--fill-0, #3F3D56)"/>
<path id="Vector_60" d="M39.6419 50.1482H40.0737C40.11 50.1482 40.1393 50.1188 40.1393 50.0826V49.876C40.1393 49.8397 40.11 49.8104 40.0737 49.8104H39.6419C39.6057 49.8104 39.5763 49.8397 39.5763 49.876V50.0826C39.5763 50.1188 39.6057 50.1482 39.6419 50.1482Z" fill="var(--fill-0, #3F3D56)"/>
<path id="Vector_61" d="M38.5159 50.1482H38.9477C38.9839 50.1482 39.0133 50.1188 39.0133 50.0826V49.876C39.0133 49.8397 38.9839 49.8104 38.9477 49.8104H38.5159C38.4796 49.8104 38.4502 49.8397 38.4502 49.876V50.0826C38.4502 50.1188 38.4796 50.1482 38.5159 50.1482Z" fill="var(--fill-0, #3F3D56)"/>
<path id="Vector_62" d="M37.3896 50.1482H37.8214C37.8576 50.1482 37.887 50.1188 37.887 50.0826V49.876C37.887 49.8397 37.8576 49.8104 37.8214 49.8104H37.3896C37.3533 49.8104 37.324 49.8397 37.324 49.876V50.0826C37.324 50.1188 37.3533 50.1482 37.3896 50.1482Z" fill="var(--fill-0, #3F3D56)"/>
<path id="Vector_63" d="M36.2635 50.1482H36.6953C36.7316 50.1482 36.761 50.1188 36.761 50.0826V49.876C36.761 49.8397 36.7316 49.8104 36.6953 49.8104H36.2635C36.2273 49.8104 36.1979 49.8397 36.1979 49.876V50.0826C36.1979 50.1188 36.2273 50.1482 36.2635 50.1482Z" fill="var(--fill-0, #3F3D56)"/>
<path id="Vector_64" d="M35.1372 50.1482H35.5691C35.6053 50.1482 35.6347 50.1188 35.6347 50.0826V49.876C35.6347 49.8397 35.6053 49.8104 35.5691 49.8104H35.1372C35.101 49.8104 35.0716 49.8397 35.0716 49.876V50.0826C35.0716 50.1188 35.101 50.1482 35.1372 50.1482Z" fill="var(--fill-0, #3F3D56)"/>
<path id="Vector_65" d="M42.6823 50.8238H47.0555C47.0918 50.8238 47.1212 50.7944 47.1212 50.7582V50.5516C47.1212 50.5154 47.0918 50.486 47.0555 50.486H42.6823C42.646 50.486 42.6166 50.5154 42.6166 50.5516V50.7582C42.6166 50.7944 42.646 50.8238 42.6823 50.8238Z" fill="var(--fill-0, #3F3D56)"/>
</g>
<defs>
<clipPath id="clip0_0_4">
<rect width="112.012" height="85.1101" fill="white"/>
</clipPath>
</defs>
</svg>
