<svg preserveAspectRatio="none" width="100%" height="100%" overflow="visible" style="display: block;" viewBox="0 0 314 296.812" fill="none" xmlns="http://www.w3.org/2000/svg">
<g id="undraw_online-groceries_n03y 1" clip-path="url(#clip0_0_4)">
<path id="Vector" d="M314 295.247H102.108V296.161H314V295.247Z" fill="var(--fill-0, #3F3D56)"/>
<path id="Vector_2" d="M274.456 139.838C274.864 140.318 275.167 140.877 275.345 141.481C275.523 142.085 275.572 142.719 275.489 143.343C275.406 143.967 275.193 144.566 274.864 145.102C274.535 145.639 274.096 146.1 273.577 146.456L251.648 161.512L241.992 167.949C241.444 168.315 240.779 168.464 240.127 168.366C239.475 168.269 238.882 167.932 238.465 167.422C238.221 167.124 238.046 166.777 237.949 166.405C237.853 166.033 237.839 165.645 237.907 165.267C237.976 164.888 238.126 164.53 238.347 164.215C238.568 163.901 238.854 163.638 239.186 163.445L248.539 158.014L264.862 142.469L254.369 131.198L262.142 125.369L274.456 139.838Z" fill="var(--fill-0, #A0616A)"/>
<path id="Vector_3" d="M222.888 281.601H217.524L214.338 237.296L227.941 236.908L222.888 281.601Z" fill="var(--fill-0, #A0616A)"/>
<path id="Vector_4" d="M223.278 295.981C221.847 296.633 220.649 291.345 219.443 292.53C216.068 295.847 210.9 296.569 206.396 295.121L207.972 295.103C207.7 295.016 207.449 294.874 207.234 294.687C207.018 294.5 206.843 294.271 206.719 294.014C206.594 293.756 206.524 293.477 206.51 293.192C206.497 292.906 206.542 292.622 206.643 292.354C206.763 292.034 206.958 291.748 207.213 291.521C207.468 291.293 207.775 291.131 208.106 291.048L211.695 290.151L217.33 280.241L223.083 279.852C224.366 281.487 225.261 283.392 225.701 285.423C226.141 287.453 226.115 289.558 225.625 291.577C225.103 293.708 224.297 295.515 223.278 295.981Z" fill="var(--fill-0, #2F2E41)"/>
<path id="Vector_5" d="M258.605 281.601H253.241L250.055 237.296L264.046 234.576L258.605 281.601Z" fill="var(--fill-0, #A0616A)"/>
<path id="Vector_6" d="M258.994 295.981C257.563 296.633 256.365 291.345 255.159 292.53C251.784 295.847 246.616 296.569 242.112 295.121L243.688 295.103C243.417 295.016 243.165 294.874 242.95 294.687C242.734 294.5 242.559 294.27 242.435 294.013C242.311 293.756 242.24 293.477 242.227 293.192C242.214 292.906 242.259 292.622 242.359 292.354C242.479 292.034 242.675 291.748 242.93 291.521C243.185 291.293 243.491 291.131 243.822 291.048L247.411 290.151L253.047 280.241L259.188 279.464L259.343 279.717C260.53 281.631 261.296 283.775 261.589 286.008C261.881 288.241 261.694 290.511 261.04 292.665C260.529 294.302 259.834 295.597 258.994 295.981Z" fill="var(--fill-0, #2F2E41)"/>
<path id="Vector_7" d="M264.687 126.371C259.754 127.057 256.339 129.759 254.948 135.148L245.881 118.406C245.343 117.342 245.207 116.12 245.497 114.964C245.787 113.808 246.484 112.795 247.46 112.111C248.496 111.385 249.771 111.082 251.023 111.265C252.275 111.449 253.409 112.104 254.194 113.096L264.687 126.371Z" fill="var(--fill-0, #371E1E)"/>
<path id="Vector_8" d="M274.189 232.633C252.143 242.387 229.58 243.588 206.566 237.296C214.97 204.702 224.893 175.229 224.832 151.019L247.373 149.075L250.844 154.578C259.078 167.632 264.762 182.13 267.594 197.302L274.189 232.633Z" fill="var(--fill-0, #C2AAAA)"/>
<path id="Vector_9" d="M237.268 100.884C243.708 100.884 248.928 95.6644 248.928 89.2252C248.928 82.786 243.708 77.5661 237.268 77.5661C230.829 77.5661 225.609 82.786 225.609 89.2252C225.609 95.6644 230.829 100.884 237.268 100.884Z" fill="var(--fill-0, #A0616A)"/>
<path id="Vector_10" d="M250.093 109.823L235.714 110.6L233.382 97.775L245.041 95.8321L250.093 109.823Z" fill="var(--fill-0, #A0616A)"/>
<path id="Vector_11" d="M248.539 151.019L232.785 151.462L224.832 152.573C220.928 139.677 217.641 126.81 225.609 116.041L234.936 106.714L248.927 106.325L249.113 106.431C251.335 107.704 253.056 109.696 253.995 112.079C254.933 114.461 255.032 117.093 254.275 119.539C250.803 130.821 248.572 141.476 248.539 151.019Z" fill="var(--fill-0, #371E1E)"/>
<path id="Vector_12" d="M224.443 187.162L223.466 200.517C223.414 201.232 223.105 201.905 222.596 202.41C222.087 202.916 221.413 203.22 220.697 203.268C220.285 203.296 219.871 203.237 219.483 203.096C219.094 202.954 218.739 202.734 218.441 202.448C218.143 202.162 217.907 201.817 217.749 201.435C217.592 201.053 217.515 200.642 217.525 200.229L217.836 187.162L227.552 150.241L227.941 127.7L238.823 127.312L238.045 153.35L224.443 187.162Z" fill="var(--fill-0, #A0616A)"/>
<path id="Vector_13" d="M239.988 129.255C235.375 127.379 231.066 128.007 227.163 131.975L227.698 112.944C227.765 111.753 228.259 110.627 229.089 109.772C229.919 108.916 231.03 108.388 232.218 108.285C233.478 108.176 234.733 108.552 235.725 109.338C236.717 110.123 237.371 111.258 237.553 112.51L239.988 129.255Z" fill="var(--fill-0, #371E1E)"/>
<path id="Vector_14" d="M261.947 141.108H226.192C234.533 119.021 237.223 98.4741 226.192 80.8695C226.382 75.5819 233.163 70.998 238.43 71.5044C244.65 72.1025 253.009 76.6734 254.174 82.8127L261.947 141.108Z" fill="var(--fill-0, #2F2E41)"/>
<path id="Vector_15" d="M147.998 70.5335H146.367V25.8574C146.367 22.4617 145.699 19.0994 144.399 15.9622C143.1 12.825 141.195 9.97452 138.794 7.57344C136.393 5.17236 133.542 3.26772 130.405 1.96827C127.268 0.668822 123.906 9.88523e-06 120.51 2.00612e-05H25.8575C22.4618 1.25631e-05 19.0994 0.668829 15.9623 1.96828C12.8251 3.26773 9.97459 5.17237 7.5735 7.57345C5.17242 9.97453 3.26778 12.825 1.96832 15.9622C0.668864 19.0994 4.5294e-05 22.4618 4.9043e-05 25.8574V270.954C4.63651e-05 274.35 0.668864 277.712 1.96832 280.849C3.26778 283.987 5.17242 286.837 7.5735 289.238C9.97459 291.639 12.8251 293.544 15.9623 294.843C19.0994 296.143 22.4618 296.812 25.8575 296.812H120.51C123.906 296.812 127.268 296.143 130.405 294.843C133.542 293.544 136.393 291.639 138.794 289.238C141.195 286.837 143.1 283.987 144.399 280.849C145.699 277.712 146.367 274.35 146.367 270.954V102.335H147.998V70.5335Z" fill="var(--fill-0, #3F3D56)"/>
<path id="Vector_16" d="M121.553 6.72722H109.198C109.766 8.12023 109.983 9.63159 109.829 11.1282C109.676 12.6248 109.157 14.0606 108.317 15.3093C107.478 16.5579 106.345 17.581 105.017 18.2885C103.69 18.996 102.208 19.3661 100.704 19.3662H46.4786C44.9741 19.3661 43.4928 18.996 42.1651 18.2885C40.8374 17.581 39.704 16.5579 38.8649 15.3093C38.0257 14.0606 37.5065 12.6248 37.353 11.1282C37.1995 9.6316 37.4164 8.12023 37.9846 6.72722H26.4447C23.9089 6.72721 21.3979 7.22668 19.0551 8.19709C16.7123 9.1675 14.5836 10.5899 12.7905 12.383C10.9974 14.1761 9.57503 16.3048 8.60461 18.6476C7.63419 20.9904 7.13472 23.5013 7.13472 26.0372V270.774C7.13472 273.31 7.63419 275.821 8.6046 278.164C9.57502 280.507 10.9974 282.636 12.7905 284.429C14.5836 286.222 16.7123 287.644 19.0551 288.615C21.3979 289.585 23.9089 290.084 26.4447 290.084H121.553C124.089 290.084 126.6 289.585 128.943 288.615C131.285 287.644 133.414 286.222 135.207 284.429C137 282.636 138.423 280.507 139.393 278.164C140.364 275.821 140.863 273.31 140.863 270.774V26.0372C140.863 20.9158 138.829 16.0043 135.207 12.383C131.586 8.76164 126.674 6.72721 121.553 6.72722Z" fill="var(--fill-0, white)"/>
<path id="Vector_17" d="M124.163 44.9569H23.836V131.01H124.163V44.9569Z" fill="var(--fill-0, #E6E6E6)"/>
<path id="Vector_18" d="M53.6075 148.954C57.6618 148.954 60.9485 145.668 60.9485 141.613C60.9485 137.559 57.6618 134.272 53.6075 134.272C49.5532 134.272 46.2665 137.559 46.2665 141.613C46.2665 145.668 49.5532 148.954 53.6075 148.954Z" fill="var(--fill-0, #E0C68F)"/>
<path id="Vector_19" d="M57.2782 141.002H54.2194V137.943H52.9959V141.002H49.9372V142.225H52.9959V145.284H54.2194V142.225H57.2782V141.002Z" fill="var(--fill-0, white)"/>
<path id="Vector_20" d="M92.3518 148.954C96.4061 148.954 99.6928 145.668 99.6928 141.613C99.6928 137.559 96.4061 134.272 92.3518 134.272C88.2975 134.272 85.0108 137.559 85.0108 141.613C85.0108 145.668 88.2975 148.954 92.3518 148.954Z" fill="var(--fill-0, #E0C68F)"/>
<path id="Vector_21" d="M96.0227 142.225V141.002H88.6817V142.225H96.0227Z" fill="var(--fill-0, white)"/>
<path id="Vector_22" d="M77.741 55.689H69.8126C69.5339 55.689 69.2665 55.7997 69.0694 55.9968C68.8722 56.194 68.7615 56.4613 68.7615 56.7401V60.2201C68.7615 60.4989 68.8722 60.7662 69.0694 60.9634C69.2665 61.1605 69.5339 61.2712 69.8126 61.2712H71.1265V66.4854H76.4271V61.2712H77.741C78.0198 61.2712 78.2871 61.1605 78.4843 60.9634C78.6814 60.7662 78.7921 60.4989 78.7921 60.2201V56.7401C78.7921 56.4613 78.6814 56.194 78.4843 55.9968C78.2871 55.7997 78.0198 55.689 77.741 55.689Z" fill="var(--fill-0, #E0C68F)"/>
<path id="Vector_23" d="M85.6818 87.5379C80.8263 80.4329 78.344 71.9734 78.5907 63.3712C78.5951 63.1727 78.5307 62.9788 78.4083 62.8225C78.286 62.6661 78.1134 62.5569 77.9197 62.5133V61.0097H69.5463V62.4925H69.4309C69.3181 62.4926 69.2064 62.515 69.1022 62.5583C68.998 62.6016 68.9033 62.665 68.8237 62.7449C68.744 62.8248 68.6808 62.9196 68.6378 63.0239C68.5947 63.1282 68.5727 63.2399 68.5728 63.3528C68.5728 63.3736 68.5736 63.3945 68.5752 63.4153C69.2348 72.6109 67.0073 80.8573 61.8925 88.1546C61.5982 88.574 61.4478 89.0775 61.464 89.5895L62.3796 117.911C62.4016 118.543 62.6667 119.142 63.1196 119.583C63.5726 120.024 64.1783 120.273 64.8104 120.278H83.7497C84.389 120.272 85.001 120.018 85.4553 119.568C85.9096 119.118 86.1703 118.509 86.1819 117.87L86.5348 90.3715C86.5452 89.3622 86.2477 88.3737 85.6818 87.5379Z" fill="var(--fill-0, #3F3D56)"/>
<path id="Vector_24" opacity="0.2" d="M76.0883 56.8229C76.0883 57.4244 75.8493 58.0012 75.424 58.4265C74.9988 58.8518 74.4219 59.0907 73.8205 59.0907C73.219 59.0907 72.6422 58.8518 72.2169 58.4265C71.7916 58.0012 71.5527 57.4244 71.5527 56.8229" fill="var(--fill-0, black)"/>
<path id="Vector_25" d="M82.6841 96.9454H80.3906C80.1717 95.5247 79.4515 94.2292 78.3603 93.2933C77.2692 92.3574 75.8791 91.8429 74.4415 91.8429C73.004 91.8429 71.6139 92.3574 70.5227 93.2933C69.4315 94.2292 68.7113 95.5247 68.4924 96.9454H66.1988C65.9548 96.9454 65.7137 96.9982 65.4919 97.1001C65.2702 97.202 65.0732 97.3507 64.9143 97.5359C64.7554 97.7211 64.6384 97.9385 64.5714 98.1731C64.5044 98.4077 64.4889 98.6541 64.526 98.8953L67.0172 115.088H81.3217L84.3476 98.9498C84.3934 98.7054 84.3848 98.4539 84.3224 98.2132C84.26 97.9724 84.1453 97.7484 83.9864 97.5571C83.8276 97.3657 83.6286 97.2117 83.4035 97.1059C83.1784 97.0002 82.9327 96.9454 82.6841 96.9454Z" fill="var(--fill-0, #E0C68F)"/>
<path id="Vector_26" d="M124.163 166.083H23.836V252.136H124.163V166.083Z" fill="var(--fill-0, #E6E6E6)"/>
<path id="Vector_27" d="M53.6075 270.081C57.6618 270.081 60.9485 266.794 60.9485 262.74C60.9485 258.685 57.6618 255.399 53.6075 255.399C49.5532 255.399 46.2665 258.685 46.2665 262.74C46.2665 266.794 49.5532 270.081 53.6075 270.081Z" fill="var(--fill-0, #E0C68F)"/>
<path id="Vector_28" d="M57.2782 262.128H54.2194V259.069H52.9959V262.128H49.9372V263.351H52.9959V266.41H54.2194V263.351H57.2782V262.128Z" fill="var(--fill-0, white)"/>
<path id="Vector_29" d="M92.3518 270.081C96.4061 270.081 99.6928 266.794 99.6928 262.74C99.6928 258.685 96.4061 255.399 92.3518 255.399C88.2975 255.399 85.0108 258.685 85.0108 262.74C85.0108 266.794 88.2975 270.081 92.3518 270.081Z" fill="var(--fill-0, #E0C68F)"/>
<path id="Vector_30" d="M96.0227 263.351V262.128H88.6817V263.351H96.0227Z" fill="var(--fill-0, white)"/>
<path id="Vector_31" d="M93.7496 227.216L93.8049 227.216C95.6939 227.232 97.5437 226.678 99.1132 225.627C100.683 224.576 101.899 223.076 102.603 221.323C104.822 215.712 105.342 209.572 104.097 203.667C102.852 197.763 99.8984 192.355 95.6028 188.117C91.3072 183.879 85.8599 180.998 79.9391 179.833C74.0183 178.668 67.8857 179.27 62.3048 181.565C56.7238 183.86 51.9412 187.746 48.5525 192.739C45.1637 197.732 43.3184 203.611 43.2465 209.645C43.1746 215.679 44.8791 221.6 48.1479 226.673C51.4167 231.745 56.1053 235.744 61.6299 238.171C63.347 238.931 65.2537 239.155 67.1001 238.812C68.9465 238.47 70.6463 237.578 71.9766 236.252C74.83 233.384 78.223 231.109 81.9598 229.558C85.6967 228.007 89.7036 227.211 93.7496 227.216Z" fill="var(--fill-0, white)"/>
<path id="Vector_32" d="M77.949 217.905C83.5588 217.905 88.1065 213.358 88.1065 207.748C88.1065 202.138 83.5588 197.59 77.949 197.59C72.3392 197.59 67.7915 202.138 67.7915 207.748C67.7915 213.358 72.3392 217.905 77.949 217.905Z" fill="var(--fill-0, #F9A825)"/>
</g>
<defs>
<clipPath id="clip0_0_4">
<rect width="314" height="296.812" fill="white"/>
</clipPath>
</defs>
</svg>
