<svg preserveAspectRatio="none" width="100%" height="100%" overflow="visible" style="display: block;" viewBox="0 0 56 35.7333" fill="none" xmlns="http://www.w3.org/2000/svg">
<g id="eva:arrow-back-fill">
<path id="Vector" d="M44.3333 16.3778H16.66L25.13 9.88622C25.5261 9.58217 25.7166 9.19017 25.6597 8.79647C25.6028 8.40277 25.3032 8.03961 24.8267 7.78689C24.3502 7.53417 23.7358 7.41258 23.1188 7.44888C22.5018 7.48518 21.9327 7.67639 21.5367 7.98044L9.87 16.9138C9.78991 16.9842 9.71964 17.0589 9.66 17.1371C9.66 17.2116 9.66 17.2562 9.49667 17.3307C9.3909 17.5014 9.33553 17.6831 9.33333 17.8667C9.33553 18.0502 9.3909 18.232 9.49667 18.4027C9.49667 18.4771 9.49667 18.5218 9.66 18.5962C9.71964 18.6744 9.78991 18.7492 9.87 18.8196L21.5367 27.7529C21.7561 27.921 22.0308 28.0561 22.3413 28.1488C22.6518 28.2414 22.9905 28.2892 23.3333 28.2889C23.8785 28.2896 24.4069 28.1684 24.8267 27.9464C25.0629 27.8215 25.2582 27.6679 25.4014 27.4947C25.5445 27.3215 25.6327 27.1319 25.6609 26.9369C25.6891 26.7419 25.6567 26.5453 25.5656 26.3583C25.4745 26.1713 25.3265 25.9976 25.13 25.8471L16.66 19.3556H44.3333C44.9522 19.3556 45.5457 19.1987 45.9832 18.9195C46.4208 18.6402 46.6667 18.2615 46.6667 17.8667C46.6667 17.4718 46.4208 17.0931 45.9832 16.8139C45.5457 16.5346 44.9522 16.3778 44.3333 16.3778Z" fill="var(--fill-0, #371E1E)"/>
</g>
</svg>
